<svg viewBox="0 0 20 20" fill="none" xmlns="http://www.w3.org/2000/svg"><g clip-path="url(#a)"><path d="M10 0a10 10 0 1 0 0 20 10 10 0 0 0 0-20Zm1.089 9.639a1.146 1.146 0 1 1-2.186.686 1.146 1.146 0 0 1 2.186-.686Zm.69 4.556a4.483 4.483 0 0 1-1.78.357 4.435 4.435 0 0 1-1.784-.36 4.559 4.559 0 0 1-2.407-2.407 4.603 4.603 0 0 1 0-3.57 4.559 4.559 0 0 1 3.28-2.68.47.47 0 0 1 .184.922A3.627 3.627 0 0 0 6.67 8.588a3.674 3.674 0 0 0 0 2.823 3.617 3.617 0 0 0 4.737 1.92.47.47 0 0 1 .372.864Zm2.643-2.31c-.077.177-.164.35-.26.518a.71.71 0 1 1-1.23-.712c.07-.12.132-.245.188-.373a3.433 3.433 0 0 0-.001-2.636 3.399 3.399 0 0 0-1.664-1.74.71.71 0 1 1 .615-1.279c.493.236.942.553 1.329.939.433.436.78.95 1.023 1.513a4.852 4.852 0 0 1 0 3.77Zm3.108 1.989a.71.71 0 0 1-1.26-.656c.079-.151.153-.308.222-.468a7.14 7.14 0 0 0 0-5.502 7.171 7.171 0 0 0-1.508-2.233 7.074 7.074 0 0 0-1.617-1.207.71.71 0 0 1 .681-1.246 8.501 8.501 0 0 1 1.94 1.449 8.614 8.614 0 0 1 1.807 2.671 8.56 8.56 0 0 1 0 6.636c-.084.19-.17.376-.265.556Z" fill="#FE7C8C"/></g><defs><clipPath id="a"><path fill="#fff" d="M0 0h20v20H0z"/></clipPath></defs></svg>
