<svg width="16" height="16" viewBox="0 0 16 16" xmlns="http://www.w3.org/2000/svg"><path d="M8 16A8 8 0 1 0 8 0a8 8 0 0 0 0 16Z" fill="#627EEA"/><path d="M8.249 2v4.435l3.748 1.675L8.249 2Z" fill="#fff" fill-opacity=".602"/><path d="M8.249 2 4.5 8.11l3.749-1.675V2Z" fill="#fff"/><path d="M8.249 10.984v3.014l3.75-5.19-3.75 2.176Z" fill="#fff" fill-opacity=".602"/><path d="M8.249 13.998v-3.014L4.5 8.807l3.749 5.19Z" fill="#fff"/><path d="m8.249 10.287 3.748-2.177-3.748-1.674v3.85Z" fill="#fff" fill-opacity=".2"/><path d="m4.5 8.11 3.749 2.177V6.436L4.5 8.11Z" fill="#fff" fill-opacity=".602"/></svg>
