<svg xmlns="http://www.w3.org/2000/svg" viewBox="0 0 20 20" fill="none"><circle cx="10" cy="10" r="10" fill="#fff"/><path fill="#04795B" d="M15.1 4.948a1.613 1.613 0 0 0-2.281 0L8.892 8.862a1.607 1.607 0 0 0 0 2.274l3.927 3.914a1.61 1.61 0 0 0 1.757.348 1.613 1.613 0 0 0 .996-1.485 1.603 1.603 0 0 0-.473-1.136l-2.407-2.398a.536.536 0 0 1 0-.76l2.407-2.398a1.607 1.607 0 0 0 0-2.273Z"/><path fill="#0DB50A" d="M12.818 15.05c.63.627 1.65.627 2.28 0 .63-.628.63-1.646 0-2.273L11.17 8.862a1.616 1.616 0 0 0-2.28 0 1.604 1.604 0 0 0 0 2.273l3.927 3.915Z"/><path fill="#0AE33A" d="M11.172 8.862 7.246 4.948a1.612 1.612 0 0 0-2.28 0 1.607 1.607 0 0 0 0 2.273L7.37 9.62a.535.535 0 0 1 0 .759l-2.405 2.398a1.606 1.606 0 0 0 1.14 2.744 1.616 1.616 0 0 0 1.14-.471l2.785-2.779 1.141-1.135a1.607 1.607 0 0 0 .35-1.752 1.607 1.607 0 0 0-.35-.522ZM13.958 7.693c.89 0 1.612-.72 1.612-1.607a1.61 1.61 0 0 0-1.612-1.607c-.89 0-1.612.72-1.612 1.607a1.61 1.61 0 0 0 1.612 1.607Z"/></svg>
