<svg xmlns="http://www.w3.org/2000/svg" viewBox="0 0 39 16">
    <path fill="inhe
" d="M7.88 2.06c.45-.55.75-1.3.67-2.06a2.87 2.87 0 0 0-2.59 2.97c.73.06 1.46-.37 1.92-.9Zm.66 1.05c-1.06-.06-1.96.6-2.47.6-.5 0-1.28-.57-2.12-.55A3.1 3.1 0 0 0 1.3 4.77c-1.14 1.96-.3 4.88.8 6.47.54.8 1.19 1.67 2.04 1.63.8-.03 1.13-.52 2.1-.52.99 0 1.27.52 2.13.5.88 0 1.43-.78 1.97-1.57.62-.9.87-1.78.89-1.82-.02-.02-1.71-.67-1.73-2.62-.01-1.63 1.33-2.4 1.4-2.45a3.03 3.03 0 0 0-2.36-1.28ZM17.77.9c2.3 0 3.9 1.6 3.9 3.9 0 2.32-1.63 3.92-3.96 3.92h-2.55v4.06h-1.84V.9h4.45Zm-2.61 6.27h2.11c1.6 0 2.52-.86 2.52-2.36s-.91-2.35-2.5-2.35h-2.13v4.71Zm6.99 3.15c0-1.52 1.16-2.45 3.22-2.56l2.37-.14v-.67c0-.96-.65-1.54-1.74-1.54-1.02 0-1.67.5-1.82 1.27H22.5c.1-1.56 1.43-2.71 3.57-2.71 2.1 0 3.44 1.1 3.44 2.84v5.97h-1.7v-1.43h-.05a3.1 3.1 0 0 1-2.73 1.57c-1.7 0-2.88-1.05-2.88-2.6Zm5.59-.79v-.68l-2.13.13c-1.06.08-1.66.55-1.66 1.29 0 .75.62 1.25 1.58 1.25 1.24 0 2.21-.86 2.21-1.99Zm3.38 6.43v-1.44c.13.03.42.03.57.03.82 0 1.27-.34 1.54-1.23l.16-.54-3.13-8.66h1.93l2.18 7.04h.04l2.19-7.04h1.87l-3.24 9.1c-.74 2.1-1.6 2.78-3.39 2.78a8 8 0 0 1-.72-.04Z"/>
</svg>
