<svg xmlns="http://www.w3.org/2000/svg" viewBox="0 0 40 16">
    <g fill-rule="evenodd" clip-path="url(#a)" clip-rule="evenodd">
        <path fill="inherit" d="M19.1 2.47v3.86h2.4a1.9 1.9 0 0 0 1.42-.57 1.84 1.84 0 0 0 .58-1.36c0-.51-.2-.96-.58-1.34-.37-.4-.84-.59-1.42-.59h-2.4Zm0 5.22v4.47h-1.44V1.12h3.81c.97 0 1.8.32 2.47.95a3.06 3.06 0 0 1 1.03 2.33c0 .94-.34 1.72-1.03 2.35a3.5 3.5 0 0 1-2.47.94H19.1Zm7.32 2.16c0 .37.16.68.48.92.31.25.68.37 1.11.37.6 0 1.14-.22 1.62-.66.47-.44.7-.96.7-1.56a2.97 2.97 0 0 0-1.87-.52c-.58 0-1.07.14-1.46.42-.39.27-.58.62-.58 1.03Zm1.86-5.5c1.06 0 1.9.29 2.5.85.62.56.93 1.33.93 2.3v4.66h-1.37v-1.05h-.07a2.73 2.73 0 0 1-2.37 1.3 3.1 3.1 0 0 1-2.11-.74 2.35 2.35 0 0 1-.85-1.85c0-.79.3-1.4.9-1.87.6-.46 1.39-.7 2.39-.7.85 0 1.55.16 2.1.47v-.33c0-.49-.2-.9-.59-1.25a2.05 2.05 0 0 0-1.39-.52c-.8 0-1.43.34-1.9 1l-1.26-.78a3.54 3.54 0 0 1 3.09-1.48Zm11.31.25-4.8 10.9h-1.47l1.77-3.82-3.15-7.08h1.56l2.28 5.43h.03l2.22-5.43h1.56Z"/>
        <path fill="#4285F4" d="M13.3 6.72c0-.44-.04-.87-.11-1.29H7.13v2.45h3.47A2.94 2.94 0 0 1 9.32 9.8v1.58h2.07a6.17 6.17 0 0 0 1.9-4.67Z"/>
        <path fill="#34A853" d="M7.13 12.93c1.74 0 3.2-.57 4.26-1.54L9.32 9.81a3.9 3.9 0 0 1-2.19.6 3.84 3.84 0 0 1-3.6-2.62H1.4v1.64a6.43 6.43 0 0 0 5.73 3.5Z"/>
        <path fill="#FABB05" d="M3.53 7.8a3.77 3.77 0 0 1 0-2.44V3.73H1.4a6.25 6.25 0 0 0 0 5.7l2.13-1.64Z"/>
        <path fill="#E94235" d="M7.13 2.74c.95 0 1.8.33 2.47.96l1.83-1.81A6.43 6.43 0 0 0 1.4 3.73l2.13 1.63a3.84 3.84 0 0 1 3.6-2.61"/>
    </g>
    <defs>
        <clipPath id="a">
            <path fill="#fff" d="M.47 0H40v16H.47z"/>
        </clipPath>
    </defs>
</svg>
