<svg width="17" height="16" viewBox="0 0 17 16" fill="none" xmlns="http://www.w3.org/2000/svg">
    <path d="M13.2236 3.94867C13.2595 2.08539 11.722 0.655029 9.60791 0.655029H5.23581C5.13389 0.655062 5.03534 0.691469 4.95788 0.757698C4.88041 0.823928 4.82913 0.91563 4.81326 1.0163L3.06114 11.9636C3.05331 12.0132 3.05631 12.0639 3.06995 12.1123C3.08359 12.1606 3.10755 12.2054 3.14017 12.2436C3.17278 12.2818 3.21329 12.3124 3.25889 12.3335C3.3045 12.3545 3.35412 12.3654 3.40434 12.3654H5.99485L5.58972 14.9007C5.58187 14.9503 5.58489 15.0011 5.59855 15.0494C5.61221 15.0978 5.63619 15.1426 5.66885 15.1808C5.7015 15.219 5.74205 15.2496 5.78769 15.2706C5.83334 15.2916 5.88299 15.3025 5.93324 15.3025H8.04329C8.14541 15.3025 8.23614 15.2656 8.31349 15.1997C8.39083 15.1334 8.40355 15.042 8.41929 14.9412L9.03871 11.2967C9.05445 11.1962 9.10568 11.0656 9.18335 10.9993C9.2607 10.933 9.32833 10.8969 9.43012 10.8965H10.7219C12.7921 10.8965 14.5489 9.42534 14.87 7.37858C15.097 5.92545 14.4739 4.60391 13.2236 3.94867Z" fill="#001C64"/>
    <path d="M6.55484 8.32819L5.90964 12.4197L5.5045 14.9858C5.49666 15.0354 5.49967 15.0862 5.51334 15.1345C5.527 15.1829 5.55098 15.2277 5.58363 15.2659C5.61629 15.3041 5.65683 15.3347 5.70248 15.3557C5.74812 15.3767 5.79778 15.3876 5.84803 15.3876H8.08129C8.18315 15.3875 8.28162 15.351 8.35901 15.2848C8.43641 15.2186 8.48764 15.1269 8.5035 15.0263L9.09211 11.2964C9.10798 11.1958 9.15923 11.1042 9.23663 11.038C9.31403 10.9719 9.4125 10.9355 9.51432 10.9354H10.8292C12.8994 10.9354 14.6558 9.4254 14.9769 7.37864C15.2046 5.92585 14.4734 4.60431 13.2231 3.94873C13.2198 4.10342 13.2064 4.25777 13.1826 4.41078C12.8615 6.45721 11.1047 7.96759 9.03453 7.96759H6.97705C6.87527 7.96761 6.77684 8.00394 6.69945 8.07004C6.62205 8.13613 6.57078 8.22767 6.55484 8.32819Z" fill="#0070E0"/>
    <path d="M5.90983 12.4196H3.31162C3.26138 12.4197 3.21173 12.4088 3.1661 12.3878C3.12047 12.3668 3.07994 12.3361 3.04731 12.2979C3.01468 12.2597 2.99073 12.2149 2.97711 12.1666C2.96349 12.1182 2.96053 12.0675 2.96843 12.0179L4.72021 0.907812C4.73609 0.807173 4.78738 0.71551 4.86485 0.649337C4.94232 0.583163 5.04087 0.546827 5.14276 0.546875H9.60827C11.722 0.546875 13.2595 2.08538 13.2237 3.94866C12.6977 3.67277 12.0796 3.51507 11.4022 3.51507H7.67937C7.57756 3.51517 7.47912 3.55156 7.40174 3.61772C7.32435 3.68387 7.27309 3.77545 7.25716 3.876L6.5557 8.32812L5.90983 12.4196Z" fill="#003087"/>
</svg>
