<svg xmlns="http://www.w3.org/2000/svg" fill="none" viewBox="0 0 43 16">
    <path fill="#1434CB" d="M27.61 1.5c-2.85 0-5.41 1.48-5.41 4.2 0 3.14 4.52 3.36 4.52 4.92 0 .65-.77 1.25-2.05 1.25a6.85 6.85 0 0 1-3.22-.83l-.58 2.76s1.57.7 3.69.7c3.13 0 5.58-1.54 5.58-4.33 0-3.3-4.54-3.52-4.54-4.97 0-.52.63-1.08 1.92-1.08 1.45 0 2.65.6 2.65.6l.58-2.67c-.01 0-1.32-.55-3.14-.55Zm-26.12.2-.08.4s1.2.21 2.29.65c1.4.5 1.49.8 1.73 1.7l2.56 9.84h3.43l5.26-12.6h-3.42l-3.38 8.57L8.5 3c-.13-.83-.77-1.3-1.57-1.3H1.5Zm16.57 0-2.68 12.59h3.26l2.67-12.6h-3.25Zm18.18 0c-.78 0-1.2.41-1.5 1.15l-4.78 11.44h3.41l.66-1.92h4.17l.4 1.92h3.02L39 1.69h-2.76Zm.44 3.4 1.02 4.74h-2.72l1.7-4.73Z"/>
</svg>
