<svg xmlns="http://www.w3.org/2000/svg" viewBox="0 0 20 20"><path fill="inherit" fill-rule="evenodd" d="M9.323 1.39a1.667 1.667 0 0 1 1.354 0c.333.148.55.41.7.622.148.208.306.482.48.783l6.89 11.9c.175.302.334.576.441.81.11.236.229.554.19.918a1.66 1.66 0 0 1-.677 1.175c-.295.215-.63.271-.89.295-.256.024-.573.024-.922.024H3.111c-.35 0-.667 0-.922-.024-.26-.024-.595-.08-.89-.295a1.667 1.667 0 0 1-.678-1.175c-.038-.363.08-.682.19-.918.108-.234.267-.508.442-.81l6.89-11.9c.174-.3.332-.575.48-.783.15-.213.367-.474.7-.622Zm.66 1.585c-.098.139-.218.344-.416.686L2.713 15.499a10.213 10.213 0 0 0-.4.732l.028.003c.17.015.409.016.805.016h13.708c.396 0 .635 0 .805-.016l.029-.003a10.189 10.189 0 0 0-.401-.731L10.433 3.66A10.152 10.152 0 0 0 10 2.953a1.6 1.6 0 0 0-.017.023ZM10 6.667c.46 0 .833.373.833.833v3.333a.833.833 0 1 1-1.667 0V7.5c0-.46.374-.833.834-.833Zm-.834 7.5c0-.46.374-.834.834-.834h.008a.833.833 0 1 1 0 1.667H10a.833.833 0 0 1-.834-.833Z" clip-rule="evenodd"/></svg>
