<svg xmlns="http://www.w3.org/2000/svg" viewBox="0 0 28 28">
  <circle cx="14" cy="14" r="14" fill="#fff"/>
  <path fill="inherit" d="M24.3244 20.596C22.1475 23.9962 18.337 26.25 14 26.25 7.2345 26.25 1.75 20.7655 1.75 14S7.2345 1.75 14 1.75 26.25 7.2345 26.25 14c0 .7921-.0752 1.5667-.2188 2.317-1.4192-.2859-2.7104-1.1436-3.5393-2.3288-.351-.5021-.679-1.0222-1.0072-1.5427-.5745-.911-1.1496-1.8231-1.8501-2.6414-.9351-1.0927-2.1246-1.948-3.5315-2.302-.8169-.2055-1.6484-.2803-2.4889-.2811-2.7992-.0453-4.5898 1.5722-4.9935 1.9567a9.1596 9.1596 0 0 0-.0177.0166c-1.3776 1.2895-2.0763 2.8945-2.0763 4.7707 0 1.8762.6975 3.4857 2.073 4.7897l.0074.007c1.3941 1.2879 3.1177 1.9411 5.1221 1.9411 2.0043 0 3.7275-.6528 5.122-1.9411l.0037-.0037c.3228-.3018.6081-.6206.8568-.9549 1.0504 1.2352 2.3337 2.2916 3.9295 2.6637.227.0529.4548.0955.6832.1292Zm-10.6675-8.9778c.4022.0069.7416.0623 1.0425.1624.2906.1086.5515.2719.786.4914.4713.4411.7008.9951.7008 1.693 0 .6979-.229 1.2519-.7008 1.693h.0004c-.4704.4403-1.0451.6545-1.7566.6545-.7116 0-1.2829-.2129-1.753-.6512-.4577-.4415-.6805-.9964-.6805-1.6963 0-.7.2224-1.2552.6801-1.6964.4541-.4233 1.0046-.6364 1.6811-.6504Z" clip-rule="evenodd"/>
</svg>
