<svg viewBox="0 0 16 16" xmlns="http://www.w3.org/2000/svg"><path d="M7.06645 8.7504L5.91685 7.6C5.74991 7.4336 5.54698 7.3504 5.30805 7.3504C5.06965 7.3504 4.86138 7.4336 4.68325 7.6C4.50565 7.7776 4.41685 7.9888 4.41685 8.2336C4.41685 8.47787 4.50005 8.6832 4.66645 8.8496L6.40005 10.5832C6.58885 10.772 6.80538 10.8664 7.04965 10.8664C7.29445 10.8664 7.51125 10.772 7.70005 10.5832L11.2832 7C11.439 6.84427 11.4862 6.65547 11.4248 6.4336C11.364 6.2112 11.3168 5.9944 11.2832 5.7832C11.1056 5.6168 10.8974 5.5336 10.6584 5.5336C10.4195 5.5336 10.2166 5.6168 10.0496 5.7832L7.06645 8.7504ZM8.00005 14.9832C7.02245 14.9832 6.11125 14.8 5.26645 14.4336C4.42218 14.0667 3.68618 13.5693 3.05845 12.9416C2.43071 12.3139 1.93338 11.5779 1.56645 10.7336C1.20005 9.8888 1.01685 8.9776 1.01685 8C1.01685 7.0224 1.20005 6.1112 1.56645 5.2664C1.93338 4.42213 2.43071 3.68613 3.05845 3.0584C3.68618 2.43067 4.42218 1.93333 5.26645 1.5664C6.11125 1.2 7.02245 1.0168 8.00005 1.0168C8.97765 1.0168 9.88885 1.2 10.7336 1.5664C11.5779 1.93333 12.3139 2.43067 12.9416 3.0584C13.5694 3.68613 14.0667 4.42213 14.4336 5.2664C14.8 6.1112 14.9832 7.0224 14.9832 8C14.9832 8.9776 14.8 9.8888 14.4336 10.7336C14.0667 11.5779 13.5694 12.3139 12.9416 12.9416C12.3139 13.5693 11.5779 14.0667 10.7336 14.4336C9.88885 14.8 8.97765 14.9832 8.00005 14.9832Z" fill="inherit"/></svg>
