<svg viewBox="0 0 20 20" xmlns="http://www.w3.org/2000/svg">
<path d="M9.99935 1.6665C5.39102 1.6665 1.66602 5.3915 1.66602 9.99984C1.66602 14.6082 5.39102 18.3332 9.99935 18.3332C14.6077 18.3332 18.3327 14.6082 18.3327 9.99984C18.3327 5.3915 14.6077 1.6665 9.99935 1.6665ZM13.5827 13.5832C13.2577 13.9082 12.7327 13.9082 12.4077 13.5832L9.99935 11.1748L7.59102 13.5832C7.26602 13.9082 6.74102 13.9082 6.41602 13.5832C6.09102 13.2582 6.09102 12.7332 6.41602 12.4082L8.82435 9.99984L6.41602 7.5915C6.09102 7.2665 6.09102 6.7415 6.41602 6.4165C6.74102 6.0915 7.26602 6.0915 7.59102 6.4165L9.99935 8.82484L12.4077 6.4165C12.7327 6.0915 13.2577 6.0915 13.5827 6.4165C13.9077 6.7415 13.9077 7.2665 13.5827 7.5915L11.1743 9.99984L13.5827 12.4082C13.8993 12.7248 13.8993 13.2582 13.5827 13.5832Z" fill="inherit"/>
</svg>
