<svg viewBox="0 0 20 20" xmlns="http://www.w3.org/2000/svg">
  <path d="M6.76621 16.0833C7.09121 16.4083 7.61621 16.4083 7.94121 16.0833L9.99954 14.025L12.0579 16.0833C12.3829 16.4083 12.9079 16.4083 13.2329 16.0833C13.5579 15.7583 13.5579 15.2333 13.2329 14.9083L10.5912 12.2667C10.2662 11.9417 9.74121 11.9417 9.41621 12.2667L6.77454 14.9083C6.44121 15.225 6.44121 15.7583 6.76621 16.0833ZM13.2329 3.91666C12.9079 3.59166 12.3829 3.59166 12.0579 3.91666L9.99954 5.975L7.94121 3.91666C7.61621 3.59166 7.09121 3.59166 6.76621 3.91666C6.44121 4.24166 6.44121 4.775 6.76621 5.1L9.40788 7.74166C9.73288 8.06666 10.2579 8.06666 10.5829 7.74166L13.2245 5.1C13.5579 4.775 13.5579 4.24166 13.2329 3.91666Z" fill="inherit"/>
</svg>
