<svg xmlns="http://www.w3.org/2000/svg" viewBox="0 0 20 20"><path fill="inherit" fill-rule="evenodd" d="M14.288 3.376c-.514-.042-1.174-.043-2.121-.043H6.25a.833.833 0 1 1 0-1.666h5.952c.903 0 1.632 0 2.222.048.607.05 1.14.154 1.634.406a4.167 4.167 0 0 1 1.821 1.82c.252.494.356 1.028.406 1.635.048.59.048 1.319.048 2.222v5.952a.833.833 0 0 1-1.666 0V7.833c0-.947-.001-1.607-.043-2.121-.041-.504-.118-.794-.23-1.014a2.5 2.5 0 0 0-1.092-1.092c-.22-.112-.51-.189-1.014-.23ZM5.135 4.583h6.814c.44 0 .818 0 1.13.026.33.027.657.086.973.247a2.5 2.5 0 0 1 1.092 1.092c.16.316.22.643.247.973.026.312.026.691.026 1.13v6.815c0 .439 0 .818-.026 1.13-.027.33-.086.657-.247.972a2.5 2.5 0 0 1-1.092 1.093c-.316.16-.643.22-.973.247-.312.025-.69.025-1.13.025H5.135c-.44 0-.819 0-1.13-.025-.33-.027-.658-.086-.973-.247a2.5 2.5 0 0 1-1.093-1.093c-.16-.315-.22-.643-.247-.972a14.916 14.916 0 0 1-.025-1.13V8.05c0-.439 0-.818.025-1.13.027-.33.087-.657.247-.973a2.5 2.5 0 0 1 1.093-1.092c.315-.16.643-.22.972-.247.312-.026.691-.026 1.13-.026ZM4.14 6.27c-.226.018-.31.05-.352.07a.833.833 0 0 0-.364.365c-.02.041-.052.125-.07.352-.02.236-.02.546-.02 1.026v6.75c0 .48 0 .791.02 1.027.018.227.05.31.07.352.08.157.208.284.364.364.042.02.126.052.352.07.236.02.546.02 1.027.02h6.75c.48 0 .79 0 1.027-.02.226-.018.31-.05.351-.07a.833.833 0 0 0 .364-.364c.021-.041.053-.125.071-.352.02-.236.02-.546.02-1.027v-6.75c0-.48 0-.79-.02-1.026-.018-.227-.05-.31-.07-.352a.833.833 0 0 0-.365-.364c-.041-.021-.125-.053-.351-.071a14.17 14.17 0 0 0-1.027-.02h-6.75c-.48 0-.791 0-1.027.02Z" clip-rule="evenodd"/></svg>
