<svg viewBox="0 0 20 20" xmlns="http://www.w3.org/2000/svg">
  <path d="M9.99954 4.8583L12.0495 6.9083C12.3745 7.2333 12.8995 7.2333 13.2245 6.9083C13.5495 6.5833 13.5495 6.0583 13.2245 5.7333L10.5829 3.0833C10.2579 2.7583 9.73288 2.7583 9.40788 3.0833L6.76621 5.7333C6.44121 6.0583 6.44121 6.5833 6.76621 6.9083C7.09121 7.2333 7.61621 7.2333 7.94121 6.9083L9.99954 4.8583ZM9.99954 15.1416L7.94954 13.0916C7.62454 12.7666 7.09954 12.7666 6.77454 13.0916C6.44954 13.4166 6.44954 13.9416 6.77454 14.2666L9.41621 16.9166C9.74121 17.2416 10.2662 17.2416 10.5912 16.9166L13.2329 14.275C13.5579 13.95 13.5579 13.425 13.2329 13.1C12.9079 12.775 12.3829 12.775 12.0579 13.1L9.99954 15.1416Z" fill="inherit"/>
</svg>
