<svg viewBox="0 0 16 16" xmlns="http://www.w3.org/2000/svg"><path d="M13.333 7.333a.667.667 0 0 0-.666.667v4a.667.667 0 0 1-.667.667H4A.667.667 0 0 1 3.333 12V4A.667.667 0 0 1 4 3.333h4A.667.667 0 1 0 8 2H4a2 2 0 0 0-2 2v8a2 2 0 0 0 2 2h8a2 2 0 0 0 2-2V8a.666.666 0 0 0-.667-.667Z" fill="inherit"/><path d="M10.667 3.333h1.053L7.527 7.52a.667.667 0 0 0 .217 1.093.667.667 0 0 0 .73-.146l4.193-4.187v1.053a.666.666 0 1 0 1.333 0V2.667A.667.667 0 0 0 13.334 2h-2.667a.667.667 0 1 0 0 1.333Z" fill="inherit"/></svg>
