<svg viewBox="0 0 16 16" xmlns="http://www.w3.org/2000/svg">
  <path d="M3.51961 7.99961H2.87961V13.1196C2.87961 13.4591 3.01447 13.7847 3.25451 14.0247C3.49456 14.2648 3.82013 14.3996 4.15961 14.3996H7.35961V7.99961H3.51961ZM11.8396 7.99961H8.63961V14.3996H11.8396C12.1791 14.3996 12.5047 14.2648 12.7447 14.0247C12.9848 13.7847 13.1196 13.4591 13.1196 13.1196V7.99961H11.8396ZM12.3459 4.79961C12.4397 4.48843 12.4848 4.1646 12.4796 3.83961C12.4796 2.60441 11.4748 1.59961 10.2396 1.59961C9.20153 1.59961 8.50841 2.54809 8.06105 3.57401C7.62009 2.60441 6.89177 1.59961 5.75961 1.59961C4.52441 1.59961 3.51961 2.60441 3.51961 3.83961C3.51961 4.22105 3.57017 4.53657 3.65337 4.79961H2.55961C2.02942 4.79961 1.59961 5.22942 1.59961 5.75961V6.39961C1.59961 6.9298 2.02942 7.35961 2.55961 7.35961H7.35961V6.07961H8.63961V7.35961H13.4396C13.9698 7.35961 14.3996 6.9298 14.3996 6.39961V5.75961C14.3996 5.22942 13.9698 4.79961 13.4396 4.79961H12.3459ZM4.79961 3.83961C4.79961 3.31033 5.23033 2.87961 5.75961 2.87961C6.32793 2.87961 6.85657 3.85561 7.16633 4.79961H5.43961C5.20025 4.79961 4.79961 4.79961 4.79961 3.83961ZM10.2396 2.87961C10.7689 2.87961 11.1996 3.31033 11.1996 3.83961C11.1996 4.79961 10.799 4.79961 10.5596 4.79961H8.97433C9.30073 3.79097 9.77497 2.87961 10.2396 2.87961Z" fill="inherit"/>
</svg>
