<svg xmlns="http://www.w3.org/2000/svg" viewBox="0 0 20 20"><path fill="inherit" d="M12.95 13.783a.834.834 0 0 1-.593-1.416 3.352 3.352 0 0 0 0-4.729.833.833 0 0 1 1.185-1.171 5.017 5.017 0 0 1 0 7.071.832.832 0 0 1-.592.245Zm-5.314-.24a.833.833 0 0 0 .006-1.179 3.352 3.352 0 0 1 0-4.728.833.833 0 1 0-1.185-1.172 5.017 5.017 0 0 0 0 7.072.833.833 0 0 0 1.179.007Zm8.557 2.016a8.29 8.29 0 0 0 0-11.118.833.833 0 1 0-1.236 1.118 6.624 6.624 0 0 1 0 8.882.833.833 0 1 0 1.236 1.118Zm-11.21.059a.833.833 0 0 0 .06-1.177 6.624 6.624 0 0 1 0-8.882.834.834 0 0 0-1.237-1.118 8.29 8.29 0 0 0 0 11.118.833.833 0 0 0 1.177.059ZM10 8.75a1.25 1.25 0 1 0 0 2.5 1.25 1.25 0 0 0 0-2.5Z"/></svg>