<svg viewBox="0 0 16 16" xmlns="http://www.w3.org/2000/svg"><path fill-rule="evenodd" clip-rule="evenodd" d="M1.75 1a.75.75 0 0 0-.75.75v10.5a.75.75 0 0 0 1.5 0V2.5h8.75a.75.75 0 0 0 0-1.5h-9.5Z" fill="inherit"/><path fill-rule="evenodd" clip-rule="evenodd" d="M5.08 3.991a1 1 0 0 0-1 1V14a1 1 0 0 0 1 1h.17a.75.75 0 0 0 .75-.75 1.25 1.25 0 0 1 2.5 0c0 .414.336.75.75.75h.5a.75.75 0 0 0 .75-.75 1.25 1.25 0 0 1 2.5 0c0 .414.336.75.75.75H14a1 1 0 0 0 1-1V4.991a1 1 0 0 0-1-1H5.08ZM6.25 5.5a.75.75 0 1 0 0 1.5h6.5a.75.75 0 0 0 0-1.5h-6.5ZM11 9.35h2a.65.65 0 1 1 0 1.3h-2a.65.65 0 1 1 0-1.3Zm-4.399 1.994a.649.649 0 0 0 .921 0L9.29 9.575a.65.65 0 1 0-.92-.92l-1.308 1.31-.602-.602a.65.65 0 1 0-.92.919l1.061 1.06Z" fill="inherit"/></svg>
