<svg width="16" height="16" fill="none" xmlns="http://www.w3.org/2000/svg"><circle cx="8" cy="8" fill="#2C97DE" r="8"/><path fill-rule="evenodd" clip-rule="evenodd" d="M.153 6.438a.58.58 0 0 0 .253-.118.685.685 0 0 1 .135-.102.297.297 0 0 1 .303.057c.04.034.075.073.103.116l.041.064c.029.046.062.098.09.133a.498.498 0 0 0 .138.129.784.784 0 0 1 .2.112c.042.065.076.135.103.207.02.035.049.066.077.097.046.05.09.1.1.165a.446.446 0 0 1-.031.182.69.69 0 0 0 .044.48c.045.085.098.165.16.239l.441.565c.024.03.192.16.312.252l.11.085c.065.052.15.055.237.059.083.003.167.006.232.053a.54.54 0 0 0 .095.072c.04.01.08.016.12.016.072.01.259.162.354.351.064.127.042.301.027.416a.919.919 0 0 0-.008.086c-.001.079.052.14.105.203.021.024.042.047.06.072.028.04.05.087.07.132.033.072.066.142.126.191.062.037.122.078.18.121a.365.365 0 0 1 .06.305c-.02.144-.06.286-.102.427-.06.207-.12.414-.112.628.008.08.01.16.007.24-.01.064-.024.127-.042.188-.044.174-.054.37.041.522.096.151.328.222.461.102a.342.342 0 0 0-.136-.122.189.189 0 0 1-.07-.234l.083-.14.042-.071a.074.074 0 0 0 .014-.066c-.005-.011-.016-.019-.026-.027-.011-.008-.022-.016-.027-.028-.005-.02-.001-.04.01-.057.092-.181.2-.377.392-.446l.011-.005c.036-.012.075-.026.089-.06.008-.019.006-.041.004-.063-.002-.025-.004-.05.01-.07a.132.132 0 0 1 .075-.04c.16-.05.246-.221.29-.383.027-.098.063-.218.162-.24a.254.254 0 0 1 .051-.004c.015 0 .03 0 .045-.003a.237.237 0 0 0 .163-.194c.011-.09.03-.177.056-.262a.66.66 0 0 1 .093-.141c.05-.063.1-.125.11-.203a.285.285 0 0 0-.119-.255.603.603 0 0 0-.273-.103.485.485 0 0 1-.254-.083.41.41 0 0 1-.062-.077.435.435 0 0 0-.058-.073.43.43 0 0 0-.174-.084.762.762 0 0 1-.111-.041 1.236 1.236 0 0 1-.173-.121.906.906 0 0 0-.42-.166s-.275.02-.326.022a.442.442 0 0 1-.39-.2c-.025-.041-.044-.087-.062-.132-.034-.084-.068-.166-.14-.217a1.05 1.05 0 0 0-.26-.086c-.087-.031-.17-.121-.135-.206.032-.078.14-.09.22-.061.035.013.068.032.1.05.041.023.082.046.127.059.165.045.335-.069.438-.206.053-.074.101-.15.145-.23a1.75 1.75 0 0 1 .329-.33l.192-.134c.036-.025.068-.054.1-.082a.646.646 0 0 1 .174-.123c.028-.012.057-.02.086-.028l.075-.024a.2.2 0 0 0 .125-.098c.03-.07.008-.147-.068-.236a.268.268 0 0 1-.05-.064.188.188 0 0 1-.006-.093.348.348 0 0 0 .003-.056.294.294 0 0 0-.136-.199.575.575 0 0 1-.18-.17 1.048 1.048 0 0 1-.073-.197 1.505 1.505 0 0 1 .003-.396c.027-.178.017-.36-.029-.534a1.565 1.565 0 0 0-.457-.734 1.538 1.538 0 0 1-.312-.342.432.432 0 0 1-.044-.137.323.323 0 0 1-.011-.055.506.506 0 0 1 .07-.216.61.61 0 0 0 .083-.287c0-.174.25-.174.293.108 0 .002 0 .002.002.002 0 0 .002 0 .002.002a.372.372 0 0 0 .067.23c.033.034.08.05.126.045a.879.879 0 0 0 .108-.031.317.317 0 0 1 .316.14.9.9 0 0 1 .127.34c.047.208.09.418.13.628a.65.65 0 0 1 .016.137c-.005.05-.012.099-.022.148-.051.322.16.63.418.813.07.05.115-.017.13-.045.033-.06.048-.132.063-.203.024-.113.048-.224.138-.285.017-.012.036-.021.055-.03.023-.012.046-.023.066-.039a.796.796 0 0 0 .115-.158c.061-.08.157-.125.253-.169.105-.048.209-.096.266-.193.052-.089.05-.194.047-.3-.003-.102-.006-.203.04-.29.017-.034.04-.064.064-.093.034-.043.068-.085.082-.137a.396.396 0 0 0-.008-.182c-.01-.05-.02-.1-.015-.151.003-.025.01-.049.016-.073.006-.024.012-.048.015-.072a7.85 7.85 0 0 0 .019-.248l.008-.117c.01-.127.023-.304.021-.343-.014-.29-.19-.41-.592-.454-.209-.024-.387.024-.566.072-.23.061-.462.123-.761.034-.098-.03-.2-.047-.302-.053h-.003l-.004-.002h-.02a.573.573 0 0 0-.045-.003.406.406 0 0 0-.09-.005c-.45.046-.858.424-1.185.728a3.345 3.345 0 0 1-.368.315v.002a1.006 1.006 0 0 1-.27.125.311.311 0 0 1-.343-.113c-.013-.022-.022-.047-.031-.072-.014-.037-.027-.074-.054-.103-.1-.105-.275-.012-.373.094-.194.208-.336.46-.414.734a.294.294 0 0 0 .016.259.29.29 0 0 0 .208.086c.077 0 .154.02.221.058.05.036.042.092.032.152l-.006.045c-.003.03.077.087.077.087a.13.13 0 0 1 .004.11c-.043.056-.133.027-.19-.014l-.01-.008c-.054-.04-.116-.086-.178-.064a.196.196 0 0 0-.038.019.13.13 0 0 1-.055.023c-.04.003-.068-.028-.097-.06-.02-.023-.04-.046-.065-.058-.069-.034-.135.016-.201.065-.025.019-.05.037-.075.052-.122.068-.273.03-.407-.01L.621 5.1l-.07-.027a7.938 7.938 0 0 0-.398 1.364Zm7.42.625a.137.137 0 0 0-.15-.04c-.04.02-.096.02-.096-.06a.232.232 0 0 1 .065-.176.461.461 0 0 1 .042-.033c.033-.024.066-.048.078-.086.01-.036-.003-.074-.016-.112-.014-.043-.029-.086-.007-.123a.154.154 0 0 1 .099-.058l.108-.03c.026-.008.061-.013.076.011a.07.07 0 0 1-.006.06.397.397 0 0 0 .08.406c.038.047.078.095.07.153-.014.09-.13.119-.22.125-.046.004-.1.002-.124-.037Zm7.354 3.534c-.051.006-.076.068-.075.12a.456.456 0 0 1 0 .153.123.123 0 0 1-.24-.034l.006-.02c.016-.046.054-.153-.02-.21a.168.168 0 0 0-.169-.016c-.027.012-.05.032-.074.052-.023.019-.046.038-.073.05a1.205 1.205 0 0 1-.14.039c-.103.034-.17.128-.234.218l-.018.025c-.07.097-.165.195-.284.192a.212.212 0 0 0-.082.003c-.051.02-.06.088-.059.143.004.168.025.336.064.5a.2.2 0 0 0 .041.094c.063.066.174.024.254-.02.156-.084.342-.161.506-.093.08.034.141.098.202.162.047.049.094.098.15.135.025.016.053.03.08.045.023.011.045.023.066.035.184-.3.348-.613.49-.934a8.654 8.654 0 0 0-.28-.55c-.024-.044-.06-.094-.11-.089Zm.263-5.788c.063.061.126.123.208.143.233.565.4 1.155.498 1.758a1.49 1.49 0 0 1-.092.241.743.743 0 0 1-.14.174.112.112 0 0 1-.098.039c-.043-.012-.058-.065-.063-.11a.997.997 0 0 1 .061-.463c.019-.048.04-.108.004-.146-.034-.035-.093-.021-.14-.007a1.327 1.327 0 0 1-.26.051.797.797 0 0 0-.166.024.192.192 0 0 0-.126.105.278.278 0 0 0 .016.184c.027.16.042.32.043.48a.334.334 0 0 0 .035.232c.01.014.023.027.036.04.037.038.075.076.053.119-.013.023-.038.032-.063.041a.133.133 0 0 0-.058.033.13.13 0 0 0-.021.08c0 .082-.015.162-.043.238a.285.285 0 0 1-.165.166.515.515 0 0 1-.117.018c-.074.006-.146.012-.185.07a.367.367 0 0 0-.035.113c-.015.068-.038.114-.069.072a.058.058 0 0 1-.021-.02l-.178-.278-.002-.006a.434.434 0 0 1-.12-.16c-.047-.099-.165-.205-.246-.133-.069.062-.013.17.03.254l.007.01a.544.544 0 0 1-.033.522 1.21 1.21 0 0 1-.3.263.408.408 0 0 0-.17.15c-.025.09-.039.181-.04.274a1.69 1.69 0 0 1-.123.303.173.173 0 0 0 .008.18c.042.035.101.044.152.022.027-.01.053-.024.08-.039.02-.012.042-.023.065-.033.077-.023.157-.041.237-.055a.218.218 0 0 0 .17-.156.313.313 0 0 0-.024-.135 1.164 1.164 0 0 1-.043-.2.294.294 0 0 1 .006-.114c.009-.025.045-.079.072-.08.039 0 .057.045.072.083l.003.007a.92.92 0 0 0 .16.21.238.238 0 0 1 .056.243.294.294 0 0 1-.07.081c-.032.029-.063.058-.076.097a.246.246 0 0 0 .047.192c.016.027.082.129.133.207l.061.095c.02.039.01.086-.022.115a.25.25 0 0 1-.113.054c-.342.098-.709.062-1.026-.1-.198-.108-.218-.267-.198-.433a.942.942 0 0 0-.065-.26.911.911 0 0 1-.08-.311.063.063 0 0 0-.06-.063c-.079.001-.162-.087-.193-.172a2.05 2.05 0 0 1-.023-.065.167.167 0 0 0-.268-.07 1.505 1.505 0 0 1-.099.078 1.55 1.55 0 0 0-.096.077.728.728 0 0 0-.22.366.087.087 0 0 1-.16.02 1.435 1.435 0 0 1-.141-.487.042.042 0 0 0-.048-.037.179.179 0 0 1-.14-.084.69.69 0 0 0-.123-.179.352.352 0 0 0-.167-.054c-.142-.021-.151.055-.162.151a.395.395 0 0 1-.045.167.739.739 0 0 1-.08.102 4.77 4.77 0 0 0-.163.194c-.053.077-.098.16-.134.247-.024.13-.152.248-.28.367-.118.11-.236.22-.273.34-.036.119-.007.22.02.312.025.088.048.167.01.247a.482.482 0 0 1-.105.13c-.036.034-.07.067-.087.102a.877.877 0 0 1-.103.178l-.48.584a.24.24 0 0 1-.196.092c-.11-.006-.139-.09-.164-.166l-.203-.622a.796.796 0 0 1-.056-.428.77.77 0 0 0 .058-.241c-.007-.072-.051-.132-.096-.192-.045-.06-.09-.12-.096-.193.008-.071.012-.143.012-.215a.244.244 0 0 0-.254-.162 2.861 2.861 0 0 0-.32.059.694.694 0 0 1-.674-.35.803.803 0 0 1-.05-.634c0-.05.019-.1.052-.138.31-.384.31-.595.279-.692a.212.212 0 0 1-.034-.068.226.226 0 0 1 .231-.261c.013 0 .025.002.038.004.035.004.07.009.101-.008.067-.038.04-.118-.015-.183a.073.073 0 0 1 .025-.114c.145-.066.25-.16.348-.248.104-.094.201-.181.331-.222.02-.007.043-.005.066-.003.029.001.057.003.08-.01.165-.1-.051-.191-.051-.191l.004-.011c-.003-.002-.006-.001-.009 0-.003 0-.006 0-.01-.002a.238.238 0 0 1-.065-.097c-.018-.038-.036-.076-.07-.1-.027-.017-.06-.022-.092-.028-.056-.01-.113-.018-.14-.096a.224.224 0 0 1 .028-.196l.548-.843a.977.977 0 0 1 .141-.176c.327-.312.589-.122.81.053.079.053.144.125.187.21a.194.194 0 0 1-.072.248c-.03.013-.064.018-.098.022-.055.006-.108.013-.134.058-.04.068.04.156.119.154a.34.34 0 0 0 .204-.11l.337-.301a.398.398 0 0 1 .34-.09c.089.017.574-.194.631-.336.046-.113.342-.16.56-.193.054-.009.103-.016.143-.024-.054-.105.03-.226.116-.306a1.927 1.927 0 0 1 .525-.35c.13-.063.264-.127.343-.247l.023-.036c.034-.058.071-.119.135-.124a.196.196 0 0 1 .117.044c.193.125.413.345.3.545a.513.513 0 0 1-.063.082c-.042.047-.083.094-.083.155.127.075.282.04.43.006.019-.005.038-.01.057-.013.163-.036.373-.023.443.128.014.03.02.064.028.098.01.048.019.097.05.134.083.096.242.043.341-.036l.046-.038c.085-.071.173-.145.28-.138.095.007.165.075.236.145Z" fill="#fff"/></svg>