<svg viewBox="0 0 16 16" xmlns="http://www.w3.org/2000/svg">
<path d="M7.99465 2C4.68229 2 2 4.68829 2 8.00065C2 11.313 4.68229 14.0013 7.99465 14.0013C11.313 14.0013 14.0013 11.313 14.0013 8.00065C14.0013 4.68829 11.313 2 7.99465 2ZM8.00065 12.8012C5.34836 12.8012 3.20013 10.6529 3.20013 8.00065C3.20013 5.34836 5.34836 3.20013 8.00065 3.20013C10.6529 3.20013 12.8012 5.34836 12.8012 8.00065C12.8012 10.6529 10.6529 12.8012 8.00065 12.8012ZM7.86864 5.00033H7.83263C7.59261 5.00033 7.40059 5.19235 7.40059 5.43237V8.26468C7.40059 8.4747 7.5086 8.67272 7.69462 8.78074L10.1849 10.2749C10.3889 10.3949 10.6529 10.3349 10.773 10.1309C10.899 9.92686 10.833 9.65683 10.6229 9.53682L8.30068 8.15667V5.43237C8.30068 5.19235 8.10866 5.00033 7.86864 5.00033Z" fill="inherit"/>
</svg>
