<svg viewBox="0 0 20 20" xmlns="http://www.w3.org/2000/svg">
<path d="M6.25065 3.32812C4.64232 3.32812 3.33398 4.63646 3.33398 6.24479C3.33398 7.85312 4.64232 9.16146 6.25065 9.16146C7.85898 9.16146 9.16732 7.85312 9.16732 6.24479C9.16732 4.63646 7.85898 3.32812 6.25065 3.32812ZM6.25065 7.49479C5.55898 7.49479 5.00065 6.93646 5.00065 6.24479C5.00065 5.55312 5.55898 4.99479 6.25065 4.99479C6.94232 4.99479 7.50065 5.55312 7.50065 6.24479C7.50065 6.93646 6.94232 7.49479 6.25065 7.49479ZM13.7507 10.8281C12.1423 10.8281 10.834 12.1365 10.834 13.7448C10.834 15.3531 12.1423 16.6615 13.7507 16.6615C15.359 16.6615 16.6673 15.3531 16.6673 13.7448C16.6673 12.1365 15.359 10.8281 13.7507 10.8281ZM13.7507 14.9948C13.059 14.9948 12.5007 14.4365 12.5007 13.7448C12.5007 13.0531 13.059 12.4948 13.7507 12.4948C14.4423 12.4948 15.0007 13.0531 15.0007 13.7448C15.0007 14.4365 14.4423 14.9948 13.7507 14.9948ZM16.0757 3.91979C16.4007 4.24479 16.4007 4.76979 16.0757 5.09479L5.10065 16.0698C4.77565 16.3948 4.25065 16.3948 3.92565 16.0698C3.60065 15.7448 3.60065 15.2198 3.92565 14.8948L14.9007 3.91979C15.2256 3.59479 15.7507 3.59479 16.0757 3.91979Z" fill="inherit"/>
</svg>
