<svg viewBox="0 0 20 20" xmlns="http://www.w3.org/2000/svg"><path d="M10.0005 16.104C9.69515 16.104 9.42782 15.9893 9.19848 15.76C8.96915 15.5313 8.85448 15.264 8.85448 14.958V11.146H5.04248C4.73648 11.146 4.46915 11.0313 4.24048 10.802C4.01115 10.5727 3.89648 10.3053 3.89648 10C3.89648 9.69466 4.01115 9.42733 4.24048 9.198C4.46915 8.96866 4.73648 8.854 5.04248 8.854H8.85448V5.042C8.85448 4.736 8.96915 4.46866 9.19848 4.24C9.42782 4.01066 9.69515 3.896 10.0005 3.896C10.3058 3.896 10.5732 4.01066 10.8025 4.24C11.0318 4.46866 11.1465 4.736 11.1465 5.042V8.854H14.9585C15.2645 8.854 15.5318 8.96866 15.7605 9.198C15.9898 9.42733 16.1045 9.69466 16.1045 10C16.1045 10.3053 15.9898 10.5727 15.7605 10.802C15.5318 11.0313 15.2645 11.146 14.9585 11.146H11.1465V14.958C11.1465 15.264 11.0318 15.5313 10.8025 15.76C10.5732 15.9893 10.3058 16.104 10.0005 16.104Z" fill="inherit"/></svg>
