<svg xmlns="http://www.w3.org/2000/svg" viewBox="0 0 20 20">
    <path fill="inherit" d="M2.5 4.58A2.08 2.08 0 0 1 4.58 2.5h2.5a2.08 2.08 0 0 1 2.09 2.08v2.5a2.08 2.08 0 0 1-2.09 2.09h-2.5A2.08 2.08 0 0 1 2.5 7.08v-2.5Zm2.08-.41a.42.42 0 0 0-.41.41v2.5a.42.42 0 0 0 .41.42h2.5a.42.42 0 0 0 .42-.42v-2.5a.42.42 0 0 0-.42-.41h-2.5ZM2.5 12.92a2.08 2.08 0 0 1 2.08-2.09h2.5a2.08 2.08 0 0 1 2.09 2.09v2.5a2.08 2.08 0 0 1-2.09 2.08h-2.5a2.08 2.08 0 0 1-2.08-2.08v-2.5Zm2.08-.42a.42.42 0 0 0-.41.42v2.5a.42.42 0 0 0 .41.41h2.5a.42.42 0 0 0 .42-.41v-2.5a.42.42 0 0 0-.42-.42h-2.5Zm8.34-10a2.08 2.08 0 0 0-2.09 2.08v2.5a2.08 2.08 0 0 0 2.09 2.09h2.5a2.08 2.08 0 0 0 2.08-2.09v-2.5a2.08 2.08 0 0 0-2.08-2.08h-2.5Zm-.42 2.08a.42.42 0 0 1 .42-.41h2.5a.42.42 0 0 1 .41.41v2.5a.42.42 0 0 1-.41.42h-2.5a.42.42 0 0 1-.42-.42v-2.5Zm-1.67 6.25h2.3v2.3h-2.3v-2.3Zm4.38 2.3h-2.09v2.08h-2.29v2.29h2.3v-2.3h2.08v2.3h2.29v-2.3h-2.3v-2.07Zm0 0v-2.3h2.29v2.3h-2.3Z"/>
</svg>
