<svg xmlns="http://www.w3.org/2000/svg" viewBox="0 0 20 20"><g clip-path="url(#a)"><path fill="inherit" d="M16.75 5.375a.125.125 0 0 1 .125.125v9a.125.125 0 0 1-.125.125H3.25a.125.125 0 0 1-.125-.125v-9a.125.125 0 0 1 .125-.125h13.5Zm0-1.875H3.25a2 2 0 0 0-2 2v9a2 2 0 0 0 2 2h13.5a2 2 0 0 0 2-2v-9a2 2 0 0 0-2-2Zm-9.856 8.955V9.392a.5.5 0 0 0-.5-.5h-.875a.5.5 0 0 0-.5.5v3.063a.5.5 0 0 0 .5.5h.875a.5.5 0 0 0 .5-.5Zm2.696 0V7.576a.5.5 0 0 0-.5-.5h-.875a.5.5 0 0 0-.5.5v4.879a.5.5 0 0 0 .5.5h.875a.499.499 0 0 0 .5-.5Zm2.695 0v-1.466a.5.5 0 0 0-.5-.5h-.875a.5.5 0 0 0-.5.5v1.466a.5.5 0 0 0 .5.5h.875a.499.499 0 0 0 .5-.5Zm2.696 0V9.392a.5.5 0 0 0-.5-.5h-.875a.5.5 0 0 0-.5.5v3.063a.5.5 0 0 0 .5.5h.875a.499.499 0 0 0 .5-.5Z"/></g><defs><clipPath id="a"><path fill="inherit" d="M0 0h20v20H0z"/></clipPath></defs></svg>
