<svg viewBox="0 0 20 20" xmlns="http://www.w3.org/2000/svg">
  <path fill-rule="evenodd" clip-rule="evenodd" d="M9.14667 2C5.19967 2 2 5.19967 2 9.14667C2 13.0937 5.19967 16.2933 9.14667 16.2933C10.851 16.2933 12.4165 15.6964 13.6447 14.7006L16.7254 17.7813C17.017 18.0729 17.4897 18.0729 17.7813 17.7813C18.0729 17.4897 18.0729 17.017 17.7813 16.7254L14.7006 13.6447C15.6964 12.4165 16.2933 10.851 16.2933 9.14667C16.2933 5.19967 13.0937 2 9.14667 2ZM3.49333 9.14667C3.49333 6.02442 6.02442 3.49333 9.14667 3.49333C12.2689 3.49333 14.8 6.02442 14.8 9.14667C14.8 12.2689 12.2689 14.8 9.14667 14.8C6.02442 14.8 3.49333 12.2689 3.49333 9.14667Z" fill="inherit"/>
</svg>
