<svg viewBox="0 0 20 20" xmlns="http://www.w3.org/2000/svg"><path d="M16.251 10c0-.192-.008-.376-.025-.567l1.55-1.175a.838.838 0 0 0 .217-1.084l-1.558-2.691a.822.822 0 0 0-1.042-.35L13.6 4.89a6.32 6.32 0 0 0-.975-.567L12.384 2.4a.836.836 0 0 0-.825-.733H8.451a.838.838 0 0 0-.833.733l-.242 1.925c-.341.159-.666.35-.975.567L4.61 4.133a.822.822 0 0 0-1.042.35l-1.558 2.7a.84.84 0 0 0 .216 1.083l1.55 1.175a6.118 6.118 0 0 0 0 1.125l-1.55 1.175a.838.838 0 0 0-.216 1.083l1.558 2.692a.822.822 0 0 0 1.042.35l1.791-.758c.309.216.634.408.975.566l.242 1.925c.05.417.408.734.825.734h3.108a.836.836 0 0 0 .825-.734l.242-1.925c.341-.158.666-.35.975-.566l1.791.758a.822.822 0 0 0 1.042-.35l1.559-2.692a.84.84 0 0 0-.217-1.083l-1.55-1.175c.025-.192.033-.375.033-.567Zm-6.217 2.916a2.92 2.92 0 0 1-2.916-2.917 2.92 2.92 0 0 1 2.916-2.916 2.92 2.92 0 0 1 2.917 2.916 2.92 2.92 0 0 1-2.917 2.917Z" fill="inherit"/></svg>
