<svg viewBox="0 0 20 20" xmlns="http://www.w3.org/2000/svg"><g clip-path="url(#a)"><path fill-rule="evenodd" clip-rule="evenodd" d="M2.8 13.232A1.97 1.97 0 0 0 4.77 15.2h4.805v-3.245a2 2 0 0 1 0-3.91V4.801H4.769A1.97 1.97 0 0 0 2.8 6.769v6.463Zm.794-.695a1.6 1.6 0 0 0 1.6-1.599l.001-1.874a1.6 1.6 0 0 0-1.599-1.6h-.14v5.073h.138ZM15.229 15.2a1.97 1.97 0 0 0 1.97-1.968V6.769a1.97 1.97 0 0 0-1.97-1.968h-4.804v3.244a2 2 0 0 1 0 3.91V15.2h4.804Zm1.175-2.663a1.6 1.6 0 0 1-1.6-1.599l-.002-1.874a1.6 1.6 0 0 1 1.6-1.6h.14v5.073h-.138Z" fill="inherit"/></g><defs><clipPath id="a"><path fill="#fff" transform="translate(2 2)" d="M0 0h16v16H0z"/></clipPath></defs></svg>
