<svg viewBox="0 0 16 16" xmlns="http://www.w3.org/2000/svg"><path d="M10.985 6.603c.245-.27.217-.558.05-.71-.168-.152-.49-.157-.735.113l-1.78 1.77-1.233-1.173a1.086 1.086 0 0 0-1.533.035c-.414.432-1.169 1.76-1.169 1.76-.192.282-.265.518-.081.67.184.151.388.051.662-.17l1.38-1.178 1.238 1.178c.442.42 1.112.516 1.554-.057l1.647-2.238Z" fill="inherit"/><path fill-rule="evenodd" clip-rule="evenodd" d="m4.25 12.739 3.181 2.222a.994.994 0 0 0 1.139 0l3.182-2.222 3.12-2.259a.994.994 0 0 0 .363-1.11L14.07 5.756l-1.233-3.61a.994.994 0 0 0-.933-.673L8.001 1.44l-3.904.033a.994.994 0 0 0-.933.673l-1.233 3.61L.766 9.37a.994.994 0 0 0 .363 1.11l3.12 2.259Zm3.75.668 2.825-1.972 2.753-1.993-1.026-3.182-1.09-3.19L8 3.04l-3.461.03-1.09 3.19-1.026 3.182 2.753 1.993L8 13.407Z" fill="inherit"/></svg>
