<svg xmlns="http://www.w3.org/2000/svg" viewBox="0 0 20 20"><path d="M17 9.51h-4.88a2.12 2.12 0 1 0 0 4.23H17a1 1 0 0 0 1-1v-2.23a1 1 0 0 0-1-1Zm-4.88 2.92a.8.8 0 1 1 0-1.6.8.8 0 0 1 0 1.6Z" fill="inherit"/><path d="M12.12 8.7h4.87V7.25a1 1 0 0 0-1-1h-4.2a.41.41 0 1 1 0-.82H15V4a1 1 0 0 0-1-1H8.7v2a4.46 4.46 0 0 1-4.46 4.46c-.47 0-.87-.1-1.24-.23V13a4 4 0 0 0 4 4h9a1 1 0 0 0 1-1v-1.44h-4.88a2.94 2.94 0 0 1 0-5.87Z" fill="inherit"/><path d="m5.81 5.94-2.69-2.7h1.8a.62.62 0 1 0 0-1.24h-3.3a.62.62 0 0 0-.62.62v3.3a.62.62 0 1 0 1.24 0v-1.8l2.7 2.7a.62.62 0 0 0 .87 0 .62.62 0 0 0 0-.88Z" fill="inherit"/></svg>
