<svg viewBox="0 0 16 16" fill="none" xmlns="http://www.w3.org/2000/svg">
<path d="M8 16C12.4602 16 16 12.3894 16 8C16 3.53982 12.3894 0 8 0C3.53982 0 0 3.61062 0 8C0 12.3894 3.61062 16 8 16Z" fill="#2C374B"/>
<path fill-rule="evenodd" clip-rule="evenodd" d="M12.3896 5.0973C12.3188 5.0265 8.84976 2.9734 8.42499 2.83181C8.28339 2.76101 7.92941 2.69022 7.71702 2.76101C7.50463 2.83181 3.82322 4.9557 3.68162 5.0973C3.61083 5.16809 3.54003 5.30969 3.46923 5.38048C3.39844 5.52208 3.39844 5.59287 3.39844 8.07075V10.6194L3.89401 10.9026C4.1772 11.0442 4.38959 11.1858 4.38959 11.1858C4.46038 11.1858 7.78782 5.87606 7.78782 5.80526C7.78782 5.73447 7.00906 5.73447 6.79667 5.80526C6.51348 5.87606 6.30109 6.01765 6.1595 6.15924C6.0887 6.23004 5.66392 6.93801 5.09755 7.71677C4.60198 8.49553 4.1772 9.20349 4.1772 9.20349C4.1772 9.20349 4.1772 8.49553 4.1772 7.50438V5.73447L4.248 5.66367C4.38959 5.52208 8.00021 3.46898 8.1418 3.46898C8.2126 3.46898 8.28339 3.46898 9.13295 3.96455C9.41614 4.10615 10.1949 4.53093 10.8321 4.9557C11.4692 5.30969 12.0356 5.66367 12.1064 5.73447L12.1772 5.80526V9.48668L10.4073 6.72562C10.3365 6.58402 10.2657 6.44243 10.1949 6.37163C10.1949 6.37163 10.1241 6.51323 9.69932 7.22119C9.62853 7.29199 9.55773 7.43358 9.55773 7.50438L9.48693 7.64597L9.55773 7.71677L9.62853 7.78756C9.62853 7.78756 9.62853 7.85836 9.69932 7.85836L9.84092 8.07075C9.84092 8.07075 9.84092 8.14155 9.91171 8.14155C9.98251 8.21234 10.0533 8.35394 10.0533 8.42473C10.0533 8.42473 10.0533 8.42473 10.0533 8.49553L11.54 10.9026L11.3984 10.9734C11.3276 11.0442 11.2568 11.0442 11.186 11.0442L9.34534 8.21234L9.27454 8.14155L9.13295 8.42473L8.42499 9.55747L9.84092 11.823C9.62853 11.9646 8.42499 12.8141 8.35419 12.8141C8.28339 12.8141 6.65507 11.7522 6.72587 11.6814C6.72587 11.6814 7.22145 10.8318 7.78782 9.84066C8.28339 8.9911 8.92056 7.92916 9.34534 7.22119C9.84091 6.37163 10.0533 5.94686 10.0533 5.94686C10.0533 5.94686 9.69932 5.94686 9.27454 5.94686H8.56658L6.93826 8.63712C6.37189 9.62827 5.80552 10.5486 5.52233 11.0442C5.02676 11.115 4.88516 11.2566 4.88516 11.2566L4.81437 11.3982L6.0887 12.1061C6.79667 12.5309 7.43384 12.8849 7.57543 12.9557C7.78782 13.0973 8.1418 13.0973 8.28339 13.0973C8.42499 13.0265 12.1064 10.9026 12.3188 10.761C12.3896 10.6902 12.4604 10.6194 12.5312 10.4778L12.602 10.2654V7.92916V5.59287L12.5312 5.45128C12.5312 5.30969 12.3896 5.16809 12.3896 5.0973Z" fill="white"/>
<path d="M12.0355 9.41594L9.91157 6.1593L9.13281 7.43364L11.1859 10.7611L12.1063 10.3363L12.0355 9.41594Z" fill="#24A2EE"/>
<path d="M11.0452 11.1858L8.92133 7.9292L8.00098 9.34513L9.70009 12.0354L10.762 11.6106L11.0452 11.1858Z" fill="#24A2EE"/>
<path fill-rule="evenodd" clip-rule="evenodd" d="M4.10591 5.73443L7.99971 3.46895L11.8935 5.73443V10.2654L7.99971 12.5309L5.09706 10.9026L4.74308 11.5397L7.92892 13.3805C7.99971 13.4512 8.07051 13.4512 8.14131 13.3805L12.6015 10.8318C12.6723 10.761 12.7431 10.6902 12.7431 10.6194V5.52205C12.7431 5.45125 12.6723 5.38045 12.6015 5.30966L8.14131 2.76098C8.07051 2.69019 7.99971 2.69019 7.92892 2.76098L3.46874 5.23886C3.39794 5.30966 3.32715 5.38045 3.32715 5.45125V10.5486C3.32715 10.6194 3.39794 10.6902 3.46874 10.761L4.38909 11.2566L4.81387 10.6194L4.17671 10.2654V5.73443H4.10591Z" fill="#98BCDC"/>
<path d="M9.69989 5.7345H8.21317L4.74414 11.3982L5.94768 12.1062L9.69989 5.7345Z" fill="white"/>
<path d="M5.94662 6.30092C6.3006 5.73455 7.29175 5.73455 7.71653 5.80535L4.3183 11.2567C4.17671 11.1859 3.89352 11.0443 3.68113 10.9027C3.39794 10.7611 3.32715 10.7611 3.32715 10.5487V10.2655C4.10591 9.13278 5.59264 6.86729 5.94662 6.30092Z" fill="white"/>
</svg>
