<svg viewBox="0 0 16 16" fill="none" xmlns="http://www.w3.org/2000/svg">
<rect width="16" height="16" rx="8" fill="#F3BA2F"/>
<path d="M5.57089 6.91141L8.0256 4.45681L10.4816 6.91271L11.9099 5.48439L8.0256 1.59998L4.14258 5.48309L5.57089 6.91141Z" fill="white"/>
<path d="M4.56208 7.91975L3.13379 6.49146L1.70543 7.91982L3.13372 9.34811L4.56208 7.91975Z" fill="white"/>
<path d="M5.57006 8.92857L8.02476 11.3832L10.4807 8.92737L11.9098 10.3549L11.9091 10.3557L8.02476 14.24L4.14165 10.357L4.13965 10.355L5.57006 8.92857Z" fill="white"/>
<path d="M12.9173 9.34877L14.3457 7.92041L12.9174 6.49212L11.4891 7.92048L12.9173 9.34877Z" fill="white"/>
<path d="M9.47406 7.91923H9.47466L8.02527 6.46985L6.95416 7.54096H6.95406L6.83107 7.66406L6.57719 7.91793L6.5752 7.91993L6.57719 7.92202L8.02527 9.37011L9.47466 7.92073L9.47535 7.91993L9.47406 7.91923Z" fill="white"/>
</svg>
