<svg xmlns="http://www.w3.org/2000/svg" fill="none" viewBox="0 0 36 36"><path fill="#FF1256" d="M18 36c9.941 0 18-8.059 18-18S27.941 0 18 0 0 8.059 0 18s8.059 18 18 18Z"/><path fill="#fff" fill-rule="evenodd" d="m16.622 8.141-4 2.469a.17.17 0 0 1-.232-.055l-.235-.38a1.034 1.034 0 0 1 .336-1.426l1.559-.955a.483.483 0 0 0 .086-.755L12.83 5.835a1.037 1.037 0 0 1-.005-1.468l.316-.319a.17.17 0 0 1 .237 0l3.34 3.23c.255.252.255.664-.097.863Zm-1.182 11.72a4.446 4.446 0 0 1 1.041 3.991l.003-.002s-.192 1.873-1.289 6.217c-.306 1.209.875 2.275 2.04 1.832 7.937-3.015 7.93-11.073 7.93-11.073.234-5.19-5.027-10.214-6.538-11.607a.7.7 0 0 0-.848-.075l-4.133 2.642a3.464 3.464 0 0 0-.733 5.21l2.527 2.865Zm-.824-6.576c1.044-.664 2.268-1.44 2.9-1.84v.003a.501.501 0 0 1 .61.058c8.138 7.653 4.237 13.427 1.454 15.828-.656.566-1.65-.024-1.458-.866l.443-1.943a6.851 6.851 0 0 0-1.607-6.156l-2.641-3.053a1.355 1.355 0 0 1 .299-2.031Z" clip-rule="evenodd"/></svg>
