<svg viewBox="0 0 16 16" fill="none" xmlns="http://www.w3.org/2000/svg">
<g clip-path="url(#clip0_2218_45284)">
<path d="M8 16C12.4183 16 16 12.4183 16 8C16 3.58172 12.4183 0 8 0C3.58172 0 0 3.58172 0 8C0 12.4183 3.58172 16 8 16Z" fill="white"/>
<path d="M8.24805 2V6.435L11.9965 8.11L8.24805 2Z" fill="#333333"/>
<path d="M8.249 2L4.5 8.11L8.249 6.435V2Z" fill="#8C8C8C"/>
<path d="M8.24805 10.9846V13.9981L11.999 8.80859L8.24805 10.9846Z" fill="#333333"/>
<path d="M8.249 13.9981V10.9841L4.5 8.80859L8.249 13.9981Z" fill="#8C8C8C"/>
<path d="M8.24805 10.286L11.9965 8.10955L8.24805 6.43555V10.286Z" fill="#141414"/>
<path d="M4.5 8.10955L8.249 10.286V6.43555L4.5 8.10955Z" fill="#383838"/>
</g>
<defs>
<clipPath id="clip0_2218_45284">
<rect width="16" height="16" fill="white"/>
</clipPath>
</defs>
</svg>
