<svg viewBox="0 0 20 20" xmlns="http://www.w3.org/2000/svg"><path fill="inherit" d="M10.906 2.348a11.2 11.2 0 0 0-8.56 8.573 18.118 18.118 0 0 0 2.949 3.783 18.055 18.055 0 0 0 3.8 2.948 11.431 11.431 0 0 0 5.533-3.024 11.433 11.433 0 0 0 3.027-5.55 18.122 18.122 0 0 0-2.95-3.782 18.057 18.057 0 0 0-3.8-2.948Zm2.015 5.28c-.322.44-.671.853-1.027 1.26a3.486 3.486 0 0 1 .605 1.013.316.316 0 0 1-.405.405 3.448 3.448 0 0 1-.974-.572c-.224.237-.444.48-.674.712-.232.228-.474.446-.711.669a3.46 3.46 0 0 1 .58.984.316.316 0 0 1-.404.404 3.496 3.496 0 0 1-1.027-.616c-.409.355-.824.703-1.267 1.023a.378.378 0 0 1-.528-.527c.322-.443.67-.859 1.025-1.268a3.466 3.466 0 0 1-.604-1.013.316.316 0 0 1 .404-.404 3.426 3.426 0 0 1 .97.568c.224-.237.442-.48.67-.712.232-.23.474-.45.712-.674a3.433 3.433 0 0 1-.573-.975.316.316 0 0 1 .405-.405 3.465 3.465 0 0 1 1.014.605c.407-.355.82-.704 1.26-1.026a.393.393 0 0 1 .55.549ZM2.126 12.129a13.214 13.214 0 0 0 .096 4.206 1.826 1.826 0 0 0 1.443 1.443 13.217 13.217 0 0 0 4.231.093 19.786 19.786 0 0 1-3.181-2.587 19.913 19.913 0 0 1-2.59-3.155ZM17.874 7.872a13.214 13.214 0 0 0-.096-4.207 1.826 1.826 0 0 0-1.443-1.443 13.216 13.216 0 0 0-4.231-.093 20.386 20.386 0 0 1 5.77 5.743Z"/></svg>
