<svg viewBox="0 0 20 20" xmlns="http://www.w3.org/2000/svg"><path fill="inherit" d="m15.77 6.738.033.08c.136.011.277.03.423.057.439.08.897.168 1.39.416a8.137 8.137 0 0 0-5.264-4.944l.005.034c.05.358.042.728-.04 1.098.302.088.544.187.804.34a.317.317 0 0 1-.064.568 3.466 3.466 0 0 1-1.2.158 4.41 4.41 0 0 1-1.015 1.062 7.4 7.4 0 0 1-1.466.877c.121.369.184.659.199 1.007a.316.316 0 0 1-.512.255 3.465 3.465 0 0 1-.756-.874c-.947.267-1.848.332-2.609.34a7.885 7.885 0 0 1-.013.11c-.058.438-.13.748-.284 1.095a.316.316 0 0 1-.572 0 3.466 3.466 0 0 1-.29-1.129c-.798.156-1.717.583-2.56 1.542a8.127 8.127 0 0 0 5.82 9.118c1.12-.517 1.88-1.138 2.387-1.777a3.483 3.483 0 0 1-.84-.655.315.315 0 0 1 .223-.527c.379-.008.692.046 1.117.162l.098.028c.23-.532.32-1.043.334-1.481.005-.142.01-.29.02-.442a3.49 3.49 0 0 1-1.053-.414.316.316 0 0 1 .068-.568c.357-.11.67-.145 1.1-.15a8.363 8.363 0 0 1 .603-2.111 3.485 3.485 0 0 1-.897-.73.315.315 0 0 1 .24-.52c.379.006.69.07 1.111.2l.094.03c.159-.246.337-.491.538-.733.578-.694 1.117-1.12 1.712-1.319a3.487 3.487 0 0 1 .016-1.05.316.316 0 0 1 .554-.141c.235.297.382.579.547.988Z"/><path d="M2.64 6.68a5.38 5.38 0 0 1 1.913-.663c.04-.343.133-.678.273-.995a.316.316 0 0 1 .572 0c.136.304.208.58.264.941.635-.007 1.349-.054 2.088-.237a3.486 3.486 0 0 1-.2-1.02.316.316 0 0 1 .511-.255c.293.241.495.486.742.852l.035.052a6.156 6.156 0 0 0 1.244-.74c.125-.096.236-.191.335-.287a3.486 3.486 0 0 1-.734-.323.316.316 0 0 1 .064-.568c.361-.114.677-.151 1.118-.16.076-.001.147-.002.214 0 .068-.257.072-.5.04-.722a2.226 2.226 0 0 0-.13-.494 8.128 8.128 0 0 0-8.35 4.618ZM16.067 9.039c.053-.311.057-.584.027-.92.3.05 1.1.219 1.988 1.16a8.126 8.126 0 0 1-8.308 8.97 6.605 6.605 0 0 0 1.596-1.572c.357.112.73.166 1.105.158a.316.316 0 0 0 .222-.527 3.444 3.444 0 0 0-.772-.613 5.321 5.321 0 0 0 .442-1.957c.004-.109.008-.221.014-.336.364.006.727-.045 1.075-.152a.317.317 0 0 0 .068-.568c-.32-.192-.613-.3-1.03-.408.09-.563.241-1.154.5-1.745.338.112.692.172 1.048.177a.316.316 0 0 0 .24-.52 3.436 3.436 0 0 0-.748-.635 6.24 6.24 0 0 1 .37-.491c.367-.443.728-.705 1.07-.846.126.349.309.675.54.967a.316.316 0 0 0 .553-.142Z"/></svg>
