<svg viewBox="0 0 20 20" xmlns="http://www.w3.org/2000/svg"><path fill="inherit" d="M3.285 11.686a2.975 2.975 0 0 0-.83 1.317 8.055 8.055 0 0 1 .244-6.551c.03.1.07.197.116.291.231.46.614.827 1.084 1.038.347.146.718.224 1.094.233a11.265 11.265 0 0 0-.1 3.005 2.738 2.738 0 0 0-1.608.667Zm.308-6.248a1.273 1.273 0 0 0 .932 1.46.619.619 0 0 0 .78-.442A8.727 8.727 0 0 1 7.701 2.21a8.045 8.045 0 0 0-3.175 1.797 2.567 2.567 0 0 0-.934 1.43Zm3.428-.431c-.163.364-.301.739-.415 1.121-.102.338.077.502.401.362.437-.188.875-.41 1.319-.636 1.406-.81 2.928-1.4 4.513-1.75.933-.195 1.9-.17 2.821.074a8.089 8.089 0 0 0-5.135-2.276 3.626 3.626 0 0 0-2.508 1.457 7.168 7.168 0 0 0-.996 1.648Zm8.165-.053a6.27 6.27 0 0 0-2.178.07 14.985 14.985 0 0 0-4.215 1.72c-.815.484-1.686.865-2.593 1.138a12.246 12.246 0 0 0-.11 3.207 7.095 7.095 0 0 1 2.357 1.101c.72.475 1.342 1.016 2.007 1.427.667.426 1.377.781 2.119 1.059a6.48 6.48 0 0 0 2.238.435 2.982 2.982 0 0 0 2.643-1.876 8.116 8.116 0 0 0-.086-6.654 2.898 2.898 0 0 0-2.182-1.627Zm-.341 11.055a7.073 7.073 0 0 1-2.588-.454 12.059 12.059 0 0 1-2.312-1.125 28.14 28.14 0 0 0-3.168-2.048c-.308-.137-.487.022-.407.35.194.818.494 1.609.894 2.35.809 1.477 2.18 2.825 3.788 2.92a4.543 4.543 0 0 0 1.305-.233 8.104 8.104 0 0 0 3.18-1.834c-.229.043-.46.068-.692.074Zm-8.547-.372c-.546-.939-.938-1.96-1.16-3.024a.584.584 0 0 0-.87-.414 2.244 2.244 0 0 0-1.05 2.27 8.127 8.127 0 0 0 5.205 3.5c-.065-.044-.135-.08-.198-.126a7.72 7.72 0 0 1-1.927-2.206Z"/></svg>
