<svg viewBox="0 0 16 16" xmlns="http://www.w3.org/2000/svg"><path d="M1.948 10.358A6.471 6.471 0 0 1 1.5 8a6.496 6.496 0 0 1 6.342-6.492 6.879 6.879 0 0 0-.41 6.434 5.84 5.84 0 0 1-1.933 1.732c-.163-.373-.326-.746-.44-1.137-.42-1.34-.563-2.71-.562-4.127a.286.286 0 0 0-.21-.276.28.28 0 0 0-.342.201c-.507 1.903-.163 3.958.646 5.736a5.866 5.866 0 0 1-.718.206 5.886 5.886 0 0 1-1.924.082h-.001ZM13.202 6.32a.28.28 0 0 1-.341.44c-1.227-.709-2.486-1.27-3.855-1.577a9.296 9.296 0 0 0-1.199-.185 5.836 5.836 0 0 0 .529 2.537c1.713.167 3.28.95 4.438 2.236.37.412.677.863.935 1.338a6.466 6.466 0 0 0 .792-3.11c0-3.254-2.395-5.942-5.516-6.417a5.934 5.934 0 0 0-1.069 2.43c1.943.188 3.893.918 5.286 2.307v.001Zm-1.704 3.597c-1.135 1.59-2.743 2.914-4.644 3.427a.28.28 0 0 1-.212-.516 15.685 15.685 0 0 0 2.298-1.59 10.805 10.805 0 0 0 1.754-1.912 5.842 5.842 0 0 0-2.46-.804 6.818 6.818 0 0 1-4.156 2.725 6.93 6.93 0 0 1-1.439.152c-.06 0-.12-.012-.18-.013a6.489 6.489 0 0 0 10.61.677 5.897 5.897 0 0 0-1.033-1.627 5.984 5.984 0 0 0-.538-.52Z" fill="inherit"/></svg>
