<svg viewBox="0 0 20 20" xmlns="http://www.w3.org/2000/svg"><path fill-rule="evenodd" clip-rule="evenodd" d="M15.873 13.896c1.56-1.55 2.77-2.92 2.91-5.02.15-2.18-.98-3.96-2.6-5.57-1.37-1.37-2.81-2.37-4.67-2.25a5.218 5.218 0 0 0-2.45.87c.848.394 1.59.988 2.16 1.73a5.274 5.274 0 0 1 1.16 2.8 4.042 4.042 0 0 1-.944 2.97.01.01 0 0 0-.004.003.01.01 0 0 0-.002.003.01.01 0 0 0 0 .004c.178.171.372.325.58.46.381.252.8.444 1.24.57a3.083 3.083 0 0 0 2.57-.41h.01a.342.342 0 0 1 .48.1.377.377 0 0 1-.03.42 3.2 3.2 0 0 1-1.48.97c-.591.18-1.22.2-1.82.06a4.777 4.777 0 0 1-1.64-.65 4.56 4.56 0 0 1-.89-.72 3.669 3.669 0 0 1-1.82.56 3.744 3.744 0 0 1-2.85-1.23 4.14 4.14 0 0 1-1.08-2.78.39.39 0 0 1 .39-.39.386.386 0 0 1 .37.29c.204.777.603 1.49 1.16 2.07a2.739 2.739 0 0 0 1.97.78 2.505 2.505 0 0 0 1.51-.61 2.7 2.7 0 0 0 .95-2.36 4.33 4.33 0 0 0-3.46-3.7c-1.872-.222-3.417 1.177-4.2 2.72-.77 1.52-.86 3.84 1.57 6.73.84.951 1.745 1.844 2.71 2.67a5.476 5.476 0 0 0 3.02 1.4c2.11.29 3.62-.94 5.18-2.49ZM2.465 10.772c.42.841.942 1.627 1.554 2.34a26.87 26.87 0 0 0 2.857 2.823 7.059 7.059 0 0 0 2.751 1.505l-.907.908a2.078 2.078 0 0 1-2.93 0l-3.986-3.986a2.077 2.077 0 0 1 0-2.93l.66-.66Z" fill="inherit"/></svg>
