<svg viewBox="0 0 16 16" xmlns="http://www.w3.org/2000/svg">
  <path d="M13.2264 4.42027L13.1497 5.59968L10.1912 3.11855L11.3359 2.8141C11.7346 2.70807 12.0909 2.48084 12.356 2.16353L14.0086 0.185595C14.1921 -0.0341334 14.5183 -0.0627935 14.7371 0.121581L15.2653 0.566699C15.4841 0.751073 15.5126 1.07866 15.329 1.29839L13.69 3.26011C13.4165 3.58745 13.2541 3.99386 13.2264 4.42027ZM4.53205 4.71373C5.24204 3.86395 5.13168 2.59704 4.28555 1.88399C3.43942 1.17095 2.17793 1.28179 1.46795 2.13156C0.75796 2.98133 0.868325 4.24825 1.71445 4.9613C2.56058 5.67434 3.82207 5.5635 4.53205 4.71373ZM8.18693 3.86448L1.56147 11.7944C1.25337 12.1588 1.29775 12.7051 1.6606 13.0145L4.92023 15.7943C5.28308 16.1037 5.82699 16.0591 6.13509 15.6947L12.7832 7.7377C13.0913 7.37329 13.0469 6.82704 12.6841 6.51761L11.428 5.46426L4.95801 12.8571C4.70026 13.1656 4.28368 12.7966 4.53265 12.4986L10.6299 4.79488L9.40179 3.76493C9.03894 3.4555 8.49503 3.50007 8.18693 3.86448Z" fill="inherit"/>
</svg>
