<svg xmlns="http://www.w3.org/2000/svg" viewBox="0 0 20 20"><path fill-rule="evenodd" clip-rule="evenodd" d="M3.75 1.67c-1.15 0-2.08.93-2.08 2.08v12.5c0 1.15.93 2.08 2.08 2.08h12.5c1.15 0 2.08-.93 2.08-2.08V3.75c0-1.15-.93-2.08-2.08-2.08H3.75Zm5.46 1.39a1.1 1.1 0 0 1 1.02-.22c.12.04.22.1.33.17l.04.03.14.07c.06.02.12.05.17.09.03.02.02.06.01.1v.04c.11.27.17.56.08.85-.07.08-.17.11-.26.14l-.08.03c-.01.08 0 .16.02.25l.02.1a.5.5 0 0 0-.03.03l-.04.03c.17 0 .34-.04.5-.08.05-.04.11-.04.17-.03h.08c0-.06.01-.11.03-.16a.96.96 0 0 0 .02-.2l.07-.02v.09l.03.17c.03.03.07.03.11.03h.06v.1h3.12v.15h.1v-.57h.11a8 8 0 0 1 0 .47l.05.02v.07c.04-.04.09-.07.14-.05l.03.09c-.04.03-.06.08-.04.13a14 14 0 0 0 .86 0c.03-.03.08-.05.12-.07.02 0 .05.03.05.04h.42c.02.07.02.14.01.2h-.43l-.05.04a2.04 2.04 0 0 0-.06-.03l-.06-.04h-.78a.9.9 0 0 1-.46 0v.18h-1.28a.33.33 0 0 1-.17.07c.01.09-.04.13-.1.18a.34.34 0 0 0-.08.09.28.28 0 0 1-.15.1c-.03.23.03.45.1.66l.03.12-.13.03-.12.03-.13.53a.51.51 0 0 1-.3.35c-.11.13-.26.25-.43.26-.05.01-.1-.02-.13-.05l-.02-.01c-.2.01-.39-.07-.57-.15l-.05-.03c-.16-.07-.3-.15-.45-.24l-.17-.1c.02.11-.02.2-.06.29l-.02.05.05.03c.09.03.19.07.23.16.04.07.07.16.07.26 0 .19-.02.38-.03.56l-.03.38c0 .23-.1.46-.27.62a.8.8 0 0 1-.3-.1l-.02.07c-.04.06-.08.12-.04.2l.03.13c.01.07.02.14.06.2.3.32.56.67.74 1.06.16.32.3.65.42.99l.07.17h.1c.02.04.02.09.02.14 0 .07.01.14.05.2.05.08.05.17.05.27v.06l-.06.78a3.93 3.93 0 0 1-.1.56l.04.18.03.24v.03c-.01.12-.02.24-.12.33v.3c-.02.2-.03.4.04.59.14.19.3.37.47.54l.2.07c.13.04.26.09.37.2.05.07.04.17.02.26l-.01.05a4.22 4.22 0 0 1-1.32-.05c-.1-.03-.18-.06-.27-.07l-.15.02c-.17.02-.34.04-.49-.07-.01-.17.03-.33.07-.5l.05-.2.04-.08a.2.2 0 0 0 .05-.12 414.44 414.44 0 0 1-.06-.82l-.01-.01c-.04-.02-.08-.04-.07-.08 0-.12-.04-.23-.07-.34l-.02-.05a6.43 6.43 0 0 1-.1-1.01c0-.1.06-.17.13-.23l.05-.45a.51.51 0 0 0-.08-.13l-.05-.08h-.02c-.16.02-.38.04-.47-.12l-.35-.51-.35-.52h-.06a.44.44 0 0 1-.25-.06 1.1 1.1 0 0 1-.2-.35l-.02-.03-.01.06c-.02.09-.04.18-.1.25a.71.71 0 0 1-.11.14 1 1 0 0 0-.09.09 8.3 8.3 0 0 0-.34.96c0 .1-.03.18-.06.27a.3.3 0 0 1-.16.11l-.04.02-.04.09a.94.94 0 0 1-.13.24l-.07.06a.2.2 0 0 0-.1.1l-.1.2-.04.1.01.14c.02.06.03.12.01.17-.06.25-.18.49-.3.71l-.02.04-.05.15a2.2 2.2 0 0 1-.15.37c-.03.07-.12.09-.2.1l-.05.13-.17.45c-.02.19-.02.39-.01.58 0 .07.03.12.05.18l.04.06c.03.09.01.18 0 .27l-.01.04c-.35.05-.7.08-1.05-.02-.02-.02-.02-.05-.03-.08v-.03a.94.94 0 0 1 0-.47c.07-.2.12-.41.17-.62.06-.2.1-.4.17-.61a.64.64 0 0 0-.03-.03c-.04-.03-.08-.07-.08-.12 0-.12 0-.24.03-.35.03-.1.08-.2.14-.3.05-.07.1-.14.12-.23l.03-.15v-.08c0-.15.07-.27.14-.4l.05-.1.06-.1c.06-.1.11-.2.19-.28a.3.3 0 0 0 .07-.13l.05-.1a.92.92 0 0 1 .06-.09c.04-.06.08-.12.08-.2v-.21a.83.83 0 0 1-.01-.21c.03-.34.08-.67.14-1l.04-.23-.03-.03a.24.24 0 0 1-.07-.12l.01-.06.01-.06-.08-.13.06-.08.05-.08-.06-.05-.06-.04a.86.86 0 0 0 .03-.12c.02-.1.04-.22.16-.27l.04.02h.04l-.02-.34-.03-.34a2.1 2.1 0 0 1-.05-.75c.1-.13.26-.18.41-.19l-.21-.04c-.12-.02-.25-.04-.37-.08 0-.16.02-.31.05-.47.05-.18.05-.37.06-.55l.03-.39c.04-.09.16-.1.26-.09.11.02.23-.01.34-.05v-.14c-.07-.3-.05-.62 0-.92.08-.38.24-.76.53-1.03.2-.18.48-.27.75-.26.06 0 .1.04.15.09l.06.05.1-.1-.03-.1A.98.98 0 0 1 8.8 4c.02-.35.14-.7.4-.94Z" fill="inherit"/></svg>
