<svg xmlns="http://www.w3.org/2000/svg" viewBox="0 0 20 20"><path fill-rule="evenodd" clip-rule="evenodd" d="M3.16 1C1.96 1 1 1.97 1 3.16v13.68c0 1.2.97 2.16 2.16 2.16h13.68c1.2 0 2.16-.97 2.16-2.16V3.16C19 1.96 18.03 1 16.84 1H3.16Zm8.64 3.15c0-.88 1.93-1.35 2.57-1.35.9 0 2.05 1.17 2.57 1.76.52.58.2 2.1-.43 3.51 0 .88-4.71-3.04-4.71-3.92Zm.24 11.11c-.45-.54-5.52-7.11-8.1-10.48l-.56-.68c-.56-.68.65-.59 1.26-.54.48.03 5.16 4.2 5.16 4.2l2.97 2.6c1.85 1.61 3.1 2.7 3.3 2.96.57.68.25 2.1-.4 2.68-.5.44-1.33.37-1.6.34h-.05a4 4 0 0 1-1.98-1.08Zm-3.84.59c0 .88-1.93 1.35-2.57 1.35-.9 0-2.05-1.17-2.57-1.76-.52-.58-.2-2.1.43-3.51 0-.88 4.71 3.04 4.71 3.92Z" fill="inherit"/></svg>
