<svg viewBox="0 0 16 16" xmlns="http://www.w3.org/2000/svg"><path d="M15.097 7.668c-.663-2.996-1.66-4.596-3.14-5.033a3.347 3.347 0 0 0-.958-.135c-.429 0-.802.104-1.196.215C9.327 2.848 8.787 3 7.999 3s-1.329-.151-1.805-.285c-.395-.11-.768-.215-1.195-.215a3.617 3.617 0 0 0-.992.135C2.535 3.07 1.54 4.669.867 7.666c-.724 3.226-.368 5.262.997 5.735.187.066.384.1.583.1.935 0 1.685-.778 2.198-1.416.579-.722 1.256-1.088 3.354-1.088 1.873 0 2.649.254 3.318 1.088.421.524.82.891 1.216 1.122.528.307 1.055.375 1.568.199.806-.275 1.269-1.003 1.374-2.164.08-.89-.043-2.059-.378-3.574ZM6.499 7.5h-1v1a.5.5 0 1 1-1 0v-1h-1a.5.5 0 0 1 0-1h1v-1a.5.5 0 0 1 1 0v1h1a.5.5 0 1 1 0 1Zm2.625.125a.625.625 0 1 1 0-1.25.625.625 0 0 1 0 1.25ZM10.499 9a.625.625 0 1 1 0-1.25.625.625 0 0 1 0 1.25Zm0-2.75a.625.625 0 1 1 0-1.25.625.625 0 0 1 0 1.25Zm1.375 1.375a.625.625 0 1 1 0-1.25.625.625 0 0 1 0 1.25Z" fill="inherit"/></svg>
