<svg viewBox="0 0 20 20" xmlns="http://www.w3.org/2000/svg"><path fill="inherit" d="M14 12.141v3.718C14 17.04 11.987 18 9.5 18S5 17.041 5 15.859v-1.525a5.586 5.586 0 0 0 1.823.82 6.3 6.3 0 0 0 2.052.176 5.973 5.973 0 0 0 1.944-.435.3.3 0 0 0 .18-.254.294.294 0 0 0-.275-.311c-.64-.048-1.254-.02-1.853-.081a9.354 9.354 0 0 1-1.727-.288 4.247 4.247 0 0 1-1.487-.71A1.502 1.502 0 0 1 5 12.157v-.016C5 10.96 7.013 10 9.5 10s4.5.959 4.5 2.141Zm4.301-10.579-1.58-.504a.995.995 0 0 0-1.265.68 62.69 62.69 0 0 1-.461 1.575A4.276 4.276 0 0 1 11 6.475a12.028 12.028 0 0 1-2.986-.466l-4.632-.965A1.98 1.98 0 0 0 1 6.982v2.417a3.594 3.594 0 0 0 2.76 3.49v-.748c0-1.959 2.414-3.38 5.74-3.38 2.943 0 5.164 1.114 5.639 2.727a5.692 5.692 0 0 0 1.173-1.496 38.72 38.72 0 0 0 2.65-7.212.995.995 0 0 0-.66-1.218Z"/></svg>
