<svg viewBox="0 0 20 20" xmlns="http://www.w3.org/2000/svg"><path fill="inherit" d="m6.833 17.817-5.34-5.28a.897.897 0 0 1-.002-1.268l2.021-2.02a.895.895 0 0 1 1.265-.002l5.343 5.283a2.324 2.324 0 0 1-3.287 3.287Zm7.345-4.243a.188.188 0 0 0-.014.292.187.187 0 0 0 .205.027 21.969 21.969 0 0 0 3.057-1.888c.406.584.6 1.36-.052 1.846-.908.676-3.207 2.42-4.446 2.621-.348.052-.7.069-1.052.052a3.414 3.414 0 0 0-.97-2.779L5.16 8.023c.424-.77.906-1.507 1.442-2.204C7.806 4.249 8.28 3.67 8.771 3.133a7.33 7.33 0 0 1 1.523-1.382 1.213 1.213 0 0 1 1.642.149 1.15 1.15 0 0 1 .294.957l-.7.841a.368.368 0 0 0 .566.47l.821-.989a1.17 1.17 0 0 1 1.598 1.4l-.845.942a.368.368 0 0 0 .152.59.367.367 0 0 0 .395-.1l.866-.967a1.18 1.18 0 0 1 1.56 1.486l-.789.883a.367.367 0 0 0 .548.489l.757-.849a1.222 1.222 0 0 1 1.201.326 1.4 1.4 0 0 1 .306 1.538 6.13 6.13 0 0 1-1.424 1.96 24.21 24.21 0 0 1-3.064 2.697Zm-1.832-3.603L10.104 7.74a.556.556 0 0 0-.784.787l2.243 2.231a.556.556 0 0 0 .783-.787Z"/></svg>
