<svg viewBox="0 0 20 20" xmlns="http://www.w3.org/2000/svg">
  <path d="M10 1.875C8.39303 1.875 6.82214 2.35152 5.486 3.24431C4.14985 4.1371 3.10844 5.40605 2.49348 6.8907C1.87852 8.37535 1.71762 10.009 2.03112 11.5851C2.34463 13.1612 3.11846 14.6089 4.25476 15.7452C5.39106 16.8815 6.8388 17.6554 8.4149 17.9689C9.99099 18.2824 11.6247 18.1215 13.1093 17.5065C14.594 16.8916 15.8629 15.8502 16.7557 14.514C17.6485 13.1779 18.125 11.607 18.125 10C18.125 7.84512 17.269 5.77849 15.7452 4.25476C14.2215 2.73102 12.1549 1.875 10 1.875ZM5.91829 11.25C5.67107 11.25 5.42939 11.1767 5.22383 11.0393C5.01827 10.902 4.85805 10.7068 4.76344 10.4784C4.66883 10.2499 4.64408 9.99861 4.69231 9.75614C4.74054 9.51366 4.85959 9.29093 5.03441 9.11612C5.20923 8.9413 5.43195 8.82225 5.67443 8.77402C5.91691 8.72579 6.16824 8.75054 6.39665 8.84515C6.62506 8.93976 6.82028 9.09998 6.95763 9.30554C7.09498 9.5111 7.16829 9.75277 7.16829 10C7.16829 10.3315 7.0366 10.6495 6.80218 10.8839C6.56776 11.1183 6.24981 11.25 5.91829 11.25ZM9.98818 11.25C9.74096 11.25 9.49928 11.1767 9.29372 11.0393C9.08816 10.902 8.92794 10.7068 8.83333 10.4784C8.73872 10.2499 8.71397 9.99861 8.7622 9.75614C8.81043 9.51366 8.92948 9.29093 9.1043 9.11612C9.27912 8.9413 9.50184 8.82225 9.74432 8.77402C9.9868 8.72579 10.2381 8.75054 10.4665 8.84515C10.6949 8.93976 10.8902 9.09998 11.0275 9.30554C11.1649 9.5111 11.2382 9.75277 11.2382 10C11.2382 10.3315 11.1065 10.6495 10.8721 10.8839C10.6376 11.1183 10.3197 11.25 9.98818 11.25ZM14.0817 11.25C13.8345 11.25 13.5928 11.1767 13.3872 11.0393C13.1817 10.902 13.0215 10.7068 12.9268 10.4784C12.8322 10.2499 12.8075 9.99861 12.8557 9.75614C12.9039 9.51366 13.023 9.29093 13.1978 9.11612C13.3726 8.9413 13.5954 8.82225 13.8378 8.77402C14.0803 8.72579 14.3316 8.75054 14.56 8.84515C14.7885 8.93976 14.9837 9.09998 15.121 9.30554C15.2584 9.5111 15.3317 9.75277 15.3317 10C15.3317 10.3315 15.2 10.6495 14.9656 10.8839C14.7312 11.1183 14.4132 11.25 14.0817 11.25Z" fill="inherit"/>
</svg>
