<svg xmlns="http://www.w3.org/2000/svg" viewBox="0 0 20 20">
  <path fill="inherit" d="M5.00033 14.1667c-.23612 0-.43417-.08-.59417-.24-.15945-.1594-.23917-.3572-.23917-.5933V9.14588c0-.23611.07972-.43055.23917-.58333.16-.15278.35805-.22917.59417-.22917.23611 0 .43416.07973.59416.23917.15945.16.23917.35806.23917.59417v4.18748c0 .2361-.07972.4306-.23917.5834-.16.1527-.35805.2291-.59416.2291Zm4.99997 0c-.23609 0-.43386-.08-.59331-.24-.16-.1594-.24-.3572-.24-.5933V9.14588c0-.23611.08-.43055.24-.58333.15945-.15278.35722-.22917.59331-.22917.2361 0 .4342.07973.5942.23917.1594.16.2392.35806.2392.59417v4.18748c0 .2361-.0798.4306-.2392.5834-.16.1527-.3581.2291-.5942.2291Zm-7.52081 3.3334c-.23611 0-.43055-.08-.58333-.24-.15278-.1595-.22917-.3573-.22917-.5934 0-.2361.08-.4339.24-.5933.15945-.16.35722-.24.59334-.24H17.5212c.2361 0 .4305.08.5833.24.1528.1594.2292.3572.2292.5933 0 .2361-.08.4339-.24.5934-.1595.16-.3573.24-.5934.24H2.47949Zm12.52081-3.3334c-.2361 0-.4339-.08-.5933-.24-.16-.1594-.24-.3572-.24-.5933V9.14588c0-.23611.08-.43055.24-.58333.1594-.15278.3572-.22917.5933-.22917.2361 0 .4339.07973.5934.23917.16.16.24.35806.24.59417v4.18748c0 .2361-.08.4306-.24.5834-.1595.1527-.3573.2291-.5934.2291Zm-4.25-12.95832 7.0209 3.5c.1805.09723.3194.2325.4166.40584.0972.17389.1459.365.1459.57333 0 .27778-.1006.51028-.3017.6975-.2017.18778-.4414.28167-.7192.28167H2.70866c-.27778 0-.52083-.09389-.72917-.28167-.20833-.18722-.3125-.41972-.3125-.6975 0-.19444.04528-.38194.13584-.5625.09-.18055.23222-.3125.42666-.39583l7.02084-3.52084c.23611-.11111.48611-.16666.74997-.16666.2639 0 .5139.05555.75.16666Z"/>
</svg>
