<svg xmlns="http://www.w3.org/2000/svg" viewBox="0 0 20 20"><path d="M1.3 4.04a.62.62 0 0 0-.32.2c-.12.15-.12.17-.11.58v.95c0 .5 0 .5-.1.48-.18-.07-.62-.04-.7.04-.06.07-.06.07.02.05.05-.02.07-.01.05.02 0 .03-.04.06-.06.05-.03 0-.05.07-.05.21L.01 7c-.02.12 0 .18.08.27.1.11.14.12.44.12.28 0 .33.02.34.08.03.1 0 5.03-.03 5.1 0 .04-.1.05-.28.05a.81.81 0 0 0-.4.08c-.13.08-.13.08-.13.42-.01.69 0 .71.53.71h.35l-.01.83c-.02 1.17.01 1.22.82 1.27a83.43 83.43 0 0 0 5.87.02c.27 0 .34 0 .39-.05.04-.03.06-.03.06 0s.02.05.04.05.04-.04.04-.09c0-.05-.01-.07-.04-.06-.02.02-.04 0-.04-.02 0-.08.1-.02.14.08.05.1.06.1.98.1.52 0 1.23 0 1.58.02.95.04 2.43-.02 2.43-.1 0-.03.02-.06.05-.06.02 0 .03.03.02.07-.02.06.03.06.3.06a265.33 265.33 0 0 0 3.94 0c0-.02.01-.04.05-.04s.05.02.04.05c-.05.08 1.04.02 1.22-.08.3-.15.32-.22.33-1.16a7 7 0 0 1 .03-.9c.02-.06.05-.06.12-.04.12.04.57.02.66-.03.05-.03.05-.04-.02-.04-.04 0-.07-.02-.05-.06 0-.02.03-.05.05-.04.06.01.1-.68.05-.77-.1-.18-.11-.2-.5-.21l-.37-.02-.01-2.61-.02-2.6h.37c.35 0 .38-.01.48-.12.08-.1.1-.15.08-.27a2.94 2.94 0 0 1-.02-.38c0-.14-.02-.22-.05-.21-.02 0-.06-.02-.06-.05-.02-.04 0-.05.05-.03.07.03.07.02.02-.04-.07-.07-.48-.1-.67-.05-.19.05-.2 0-.23-.78-.05-1.2-.13-1.37-.7-1.35-.17 0-.33 0-.36-.02-.04-.04-.75-.1-1.1-.1l-.55.01-1.84.02-1.9.02-.54.01a73.22 73.22 0 0 0-3.03-.01c-.05 0-.1.03-.08.05 0 .02-.01.04-.04.04-.02 0-.04-.01-.04-.04 0-.04-.2-.05-.85-.05-.67 0-.85 0-.85.05 0 .03-.02.05-.05.05-.04 0-.06-.01-.05-.04.05-.08-.22-.09-2.12-.09l-2.67-.01c-.55-.02-.81 0-.96.03Zm8.48 1.17c5.71.01 7.6 0 7.6-.04s.01-.03.03 0c.02.03.13.06.24.07l.21.01v.22a542.72 542.72 0 0 1 .08 8.02c.02.97.02 1.25-.02 1.27a321.46 321.46 0 0 0-6.1.01c-2.25.01-2.54.02-2.52.07.02.05 0 .07-.06.07-.05 0-.07-.02-.05-.07.02-.05-.25-.06-2.1-.06a156.72 156.72 0 0 0-3.64.03c0-.05-.15-.03-.2.02-.04.04-.07.04-.09.01-.01-.03-.22-.05-.54-.06-.29 0-.54-.01-.55-.03a1.06 1.06 0 0 1-.04-.37c0-.29-.01-.34-.07-.32-.04.02-.06 0-.06-.06 0-.05.02-.08.06-.06.06.02.07-.17.07-1.54.02-5.17.02-5.1-.04-5.13-.03-.01-.04-.03-.01-.05.06-.04.07-.56 0-.75-.02-.09-.03-.18 0-.21l.04-.53v-.54a481.6 481.6 0 0 0 7.76.02Z" fill="inherit"/><path d="m15.26 6.5-.88.01-.17.16c-.14.14-.16.19-.18.39-.05.4-.05.95-.01 1.83.02.48.03.93.02 1.03l-.01 1.7v1.55l.1.16c.04.09.15.19.22.22.17.07 1.85.09 2.07.02a.6.6 0 0 0 .39-.5c.04-.4.02-3.49-.02-3.6l-.05-.12h-.57c-.39 0-.59.02-.62.05-.04.04-.05.2-.05.45v.4l.12.07.13.08v1.4c0 .28.01.5.04.54.04.06.04.11 0 .2-.04.1-.04.1-.35.09-.36-.02-.42-.04-.36-.13.05-.06.07-2.97.03-4.34l-.02-.67.3-.02c.45-.02.44-.02.44.28 0 .14.02.28.05.3.04.04.04.05 0 .05-.09 0-.05.12.05.14.15.03.74 0 .78-.04.02-.02.04-.34.05-.71l.02-.69-.12-.11c-.1-.1-.18-.14-.46-.18h-.94Zm-11.92.1c-.03.03-.05.27-.03.85.01.93 0 .86.05.78.04-.04.05-.03.05.05 0 .06-.02.12-.05.13-.04.01-.05.2-.05.62 0 .52-.02.62-.08.68-.06.06-.07.15-.07.54 0 .25.01.44.03.43.03-.03.17.1.17.17 0 .03 0 .05-.02.05s-.04.58-.05 1.28c0 .7 0 1.27.02 1.27s.06.05.09.1c.04.1.06.11.46.11.62 0 .58.08.57-1.44 0-.67-.01-1.23-.02-1.25-.05-.18-.03-.19.56-.19.65 0 .89-.05 1.03-.2l.1-.1.01-1.8c0-1.23 0-1.85-.03-1.9-.1-.2-.22-.21-1.5-.22-.87-.01-1.2 0-1.24.04Zm1.65 1v.99c0 .5.02.88.03.84.03-.12.1-.08.1.08 0 .12-.02.14-.07.12-.05-.01-.06 0-.04.05.02.07 0 .08-.26.06a.8.8 0 0 1-.33-.07c-.07-.07-.07-.19-.01-.19.03 0 .04-.29.02-.95v-.98a.84.84 0 0 1 .3-.03c.22 0 .26.02.26.07Zm1.92-1.02c-.07.08-.04 1.01.03 1 .03-.01.05.01.05.05 0 .03-.02.06-.05.05-.04 0-.06.06-.06.21-.01.17 0 .22.04.2.04-.03.04-.03 0 .02-.06.09-.1 4.81-.04 5.1.04.14.08.22.19.3l.13.1 1.1-.01c1.22-.02 1.3-.04 1.44-.3.09-.17.13-1.58.1-4.03l-.01-2.2c0-.24-.02-.4-.05-.41-.03-.02-.06 0-.07.02-.02.07-.09.06-.09-.02 0-.05-.07-.06-.35-.06-.58 0-.53-.14-.53 1.78 0 .9.02 1.87.03 2.17.02.4.01.55-.02.55-.08 0-.05.16.03.2.05.04.06.06.02.08-.03.03-.06.23-.06.6-.02.49-.03.6-.1.65-.06.08-.07.08-.12 0-.06-.07-.24-.09-.36-.02-.13.06-.26-.06-.22-.2.02-.13.04-3.6.02-4.85l-.01-.86-.18-.1c-.12-.06-.2-.09-.26-.06-.08.03-.36.03-.48 0a.17.17 0 0 0-.12.04Zm3.72 0a11.5 11.5 0 0 0-.02 1.78c.02.08.02.27.01.44a.87.87 0 0 0 .01.34c.06.07 0 .22-.07.22-.04 0-.05.02-.04.04.01.03 0 .07-.04.1-.08.09-.1.67-.02.71.02.02.04.07.04.1 0 .05.02.1.05.1.03.01.04.39.04 1.37a11.22 11.22 0 0 0 .05 1.47c-.02.02-.03.1-.02.2l.01.17 1.12-.02c1.66-.01 1.56.1 1.56-1.95 0-1.38 0-1.44-.08-1.52-.25-.27-.28-.33-.21-.36.17-.1.2-.29.22-.91 0-.33 0-.94.02-1.35 0-.7 0-.74-.08-.82-.13-.13-.32-.16-1.46-.16-.79 0-1.06 0-1.09.05Zm1.56.95c.03.04.03.36 0 1.58 0 .3-.02.32-.34.27l-.18-.02-.02-.37-.03-.42.03-.57.03-.51h.24c.13 0 .25.01.27.04Zm-.02 2.93c.02.03.04.35.04.72v1.05c0 .2 0 .4-.02.42-.03.05-.47.03-.54-.03-.04-.04-.05-.09-.03-.2.02-.09.04-.56.04-1.05 0-.78.01-.91.07-.95.08-.06.4-.03.44.04Z" fill="inherit"/></svg>
