<svg viewBox="0 0 20 20" xmlns="http://www.w3.org/2000/svg"><path fill="inherit" fill-rule="evenodd" d="M10.905 2.348a11.2 11.2 0 0 0-8.56 8.573l-.22 1.208a13.213 13.213 0 0 0 .097 4.206 1.825 1.825 0 0 0 1.443 1.443c1.397.258 2.825.29 4.232.093l1.197-.22a11.43 11.43 0 0 0 5.534-3.023 11.434 11.434 0 0 0 3.027-5.55l.22-1.206c.193-1.399.16-2.819-.096-4.207a1.826 1.826 0 0 0-1.443-1.443 13.216 13.216 0 0 0-4.231-.093l-1.2.22Zm.844 11.382a11.89 11.89 0 0 1-2.704 1.915.274.274 0 1 0 .174.52 8.375 8.375 0 0 0 1.72-.494 8.66 8.66 0 0 0 1.576-.935c.98-.727 1.85-1.592 2.58-2.569.746-.98 1.47-2.46 1.77-3.655a7.088 7.088 0 0 0-.102-3.628.237.237 0 0 0-.404-.096.25.25 0 0 0-.068.174 9.688 9.688 0 0 1-.574 3.222c-.375 1.002-1.076 2.303-1.72 3.158-.677.86-1.43 1.66-2.248 2.388Z" clip-rule="evenodd"/><clipPath id="a"><path fill="#fff" d="M0 0h20v20H0z"/></clipPath></svg>
