<svg viewBox="0 0 20 20" xmlns="http://www.w3.org/2000/svg"><path fill="inherit" d="M17.779 3.663a1.825 1.825 0 0 0-1.443-1.443 13.217 13.217 0 0 0-4.231-.092l-1.2.218a11.2 11.2 0 0 0-8.56 8.574l-.22 1.207a13.215 13.215 0 0 0 .097 4.206 1.824 1.824 0 0 0 1.443 1.443c1.397.258 2.825.29 4.232.093l1.197-.22a11.407 11.407 0 0 0 5.534-3.023c2.836-2.809 3.87-7.093 3.151-10.963ZM7.021 12.645a13.05 13.05 0 0 1-1.489.347c-.675.114-1.167-.367-1.102-1.048.462-4.915 4.151-8.758 9.765-8.657.998.018 1.506.821 1.101 1.733-.92 2.072-2.31 3.924-4.027 5.333-1.258 1.031-2.692 1.825-4.248 2.292Zm9.452-4.397-.262.912c-.51 1.592-1.42 2.998-2.62 4.052-.97.851-2.22 1.454-3.46 1.749-.246.058-.38-.243-.186-.406 2.777-2.348 4.948-5.202 6.34-7.864.125-.24.477-.15.447.119-.056.484-.142.964-.26 1.438Z"/><clipPath id="a"><path fill="#fff" d="M0 0h20v20H0z"/></clipPath></svg>
