<svg viewBox="0 0 38 12" xmlns="http://www.w3.org/2000/svg"><rect width="38" height="12" rx="3" fill="url(#a)"/><path d="M8.48 4.244a1.038 1.038 0 0 0-.445-.775c-.259-.184-.596-.277-1.011-.277-.292 0-.543.045-.752.133a1.113 1.113 0 0 0-.479.36.88.88 0 0 0-.06.942c.075.12.177.22.305.304.129.081.271.15.427.205.156.056.313.103.472.14l.725.183c.292.068.572.16.841.277.272.117.515.263.729.44.216.178.388.392.513.642.126.25.19.544.19.881 0 .456-.117.857-.348 1.204-.232.344-.566.614-1.004.808C8.147 9.904 7.62 10 7 10c-.601 0-1.124-.094-1.567-.281a2.335 2.335 0 0 1-1.034-.82c-.246-.36-.38-.797-.4-1.314h1.378c.02.271.103.496.249.676.146.18.336.314.57.403.237.088.5.132.793.132.304 0 .571-.045.8-.136.232-.094.413-.223.544-.388a.939.939 0 0 0 .2-.584.746.746 0 0 0-.178-.501 1.3 1.3 0 0 0-.487-.335 4.673 4.673 0 0 0-.725-.243l-.88-.227c-.636-.165-1.14-.414-1.509-.748-.367-.337-.551-.784-.551-1.34 0-.459.123-.86.37-1.204.249-.345.587-.612 1.015-.801A3.507 3.507 0 0 1 7.043 2c.548 0 1.029.096 1.442.289.415.19.74.454.977.793.237.337.359.724.366 1.162H8.481ZM18.09 5.994c0 .838-.155 1.556-.467 2.153a3.326 3.326 0 0 1-1.269 1.367c-.533.316-1.138.475-1.815.475s-1.284-.159-1.82-.475c-.534-.319-.956-.776-1.268-1.37-.31-.598-.465-1.314-.465-2.15 0-.838.155-1.554.465-2.149.312-.597.734-1.054 1.268-1.37.536-.317 1.143-.475 1.82-.475s1.282.158 1.815.475c.536.316.96.773 1.269 1.37.312.595.468 1.311.468 2.15Zm-1.407 0c0-.59-.092-1.087-.276-1.492-.181-.407-.433-.715-.755-.922a1.992 1.992 0 0 0-1.113-.316c-.42 0-.792.105-1.114.316-.322.207-.575.515-.759.922-.181.405-.272.903-.272 1.492 0 .59.091 1.089.272 1.496.184.405.437.713.759.923a2.01 2.01 0 0 0 1.114.311c.42 0 .791-.104 1.113-.311.322-.21.574-.518.755-.923.184-.407.276-.906.276-1.496ZM26.323 5.994c0 .838-.156 1.556-.468 2.153a3.326 3.326 0 0 1-1.269 1.367c-.533.316-1.138.475-1.815.475s-1.284-.159-1.82-.475c-.533-.319-.956-.776-1.268-1.37-.31-.598-.465-1.314-.465-2.15 0-.838.155-1.554.465-2.149.312-.597.735-1.054 1.268-1.37.536-.317 1.143-.475 1.82-.475s1.282.158 1.815.475c.536.316.96.773 1.269 1.37.312.595.468 1.311.468 2.15Zm-1.408 0c0-.59-.092-1.087-.276-1.492-.181-.407-.433-.715-.755-.922a1.992 1.992 0 0 0-1.113-.316c-.42 0-.792.105-1.114.316-.322.207-.575.515-.759.922-.18.405-.271.903-.271 1.492 0 .59.09 1.089.271 1.496.184.405.437.713.76.923a2.01 2.01 0 0 0 1.113.311c.42 0 .791-.104 1.113-.311.322-.21.574-.518.755-.923.184-.407.276-.906.276-1.496ZM34 2.106v7.776h-1.246l-3.642-5.296h-.065v5.296h-1.4V2.106H28.9l3.64 5.3h.067v-5.3H34Z" fill="#040406"/><defs><linearGradient id="a" x1="38" y1="0" x2="-.367" y2="1.318" gradientUnits="userSpaceOnUse"><stop stop-color="#F8B980"/><stop offset="1" stop-color="#E882C0"/></linearGradient></defs></svg>
