<svg viewBox="0 0 16 16" xmlns="http://www.w3.org/2000/svg"><path fill-rule="evenodd" clip-rule="evenodd" d="M4.673 3.307C7.185.79 11.085.617 13.383 2.92c2.299 2.302 2.126 6.208-.386 8.725-.681.682-1.325 1.193-1.935 1.557L3.109 5.224c.37-.6.883-1.236 1.564-1.917ZM2.765 9.452c-.52-1.042-.638-2.172-.053-3.484l7.594 7.618c-1.286.539-2.425.419-3.478-.095a2.115 2.115 0 0 0-.1-.045A3.564 3.564 0 0 0 5.5 13.1l.35-.347a1.297 1.297 0 0 0-.001-1.84l-.467-.464a1.304 1.304 0 0 0-1.835-.004l-.367.36a3.727 3.727 0 0 0-.414-1.353Zm1.347 1.568a.497.497 0 0 1 .7 0l.467.465a.49.49 0 0 1 0 .695l-1.737 1.726-1.238 1.25a.49.49 0 0 1-.695-.001l-.464-.467a.497.497 0 0 1-.001-.7L3.55 11.57l.561-.55Z" fill="inherit"/></svg>
