<svg viewBox="0 0 16 16" xmlns="http://www.w3.org/2000/svg"><path fill-rule="evenodd" clip-rule="evenodd" d="M7.127 1.66A6.4 6.4 0 1 1 1.66 7.128c.27.38.513.778.73 1.19.366.662.745 1.347 1.474 2.076a4.616 4.616 0 0 0 6.528-6.528c-.728-.729-1.413-1.107-2.076-1.474-.412-.217-.81-.46-1.19-.73ZM3.104 7.87a39.522 39.522 0 0 1-.657-.939 41.752 41.752 0 0 0-.566-.812 6.414 6.414 0 0 1 4.288-4.253c.512.518 1.03.906 1.615 1.305.184.126.355.238.515.343.505.33.915.599 1.383 1.067a3.61 3.61 0 0 1-1.618 6.038c-1.246.334-2.728-.175-3.486-.934-.613-.613-.82-.903-1.182-1.41-.086-.12-.181-.253-.292-.405Z" fill="inherit"/></svg>
